<?xml version="1.0" standalone="no"?>
<!DOCTYPE svg PUBLIC "-//W3C//DTD SVG 20010904//EN"
 "http://www.w3.org/TR/2001/REC-SVG-20010904/DTD/svg10.dtd">
<svg version="1.0" xmlns="http://www.w3.org/2000/svg"
 width="537.000000pt" height="465.000000pt" viewBox="0 0 537.000000 465.000000"
 preserveAspectRatio="xMidYMid meet">

<g transform="translate(0.000000,465.000000) scale(0.100000,-0.100000)"
fill="#000000" stroke="none">
<path d="M3920 3725 c-1 -27 -9 -72 -18 -100 -14 -42 -24 -53 -62 -72 -27 -14
-62 -23 -92 -23 -26 0 -50 -4 -53 -10 -4 -6 6 -10 24 -10 57 0 130 -21 152
-44 28 -29 49 -96 49 -155 0 -65 17 -38 22 34 8 113 47 150 176 164 72 8 62
15 -36 25 -94 9 -142 64 -142 163 0 26 -5 55 -10 63 -7 11 -10 1 -10 -35z"/>
<path d="M4077 3738 c-4 -10 -9 -25 -12 -33 -2 -9 -15 -19 -27 -24 -23 -9 -23
-9 5 -20 21 -8 27 -17 27 -41 0 -16 5 -30 10 -30 6 0 10 11 10 24 0 27 17 44
57 56 l28 8 -31 1 c-35 1 -50 14 -56 51 -4 21 -6 22 -11 8z"/>
<path d="M3809 3670 c-3 -17 -11 -26 -27 -28 -26 -4 -20 -22 9 -22 11 0 19 -7
20 -17 0 -14 2 -15 6 -3 3 8 12 19 20 23 12 8 12 10 0 20 -9 7 -17 21 -19 32
-4 17 -5 16 -9 -5z"/>
<path d="M1610 2690 c-174 -6 -194 -12 -252 -80 -32 -36 -37 -52 -58 -172 -12
-73 -27 -159 -33 -190 -13 -74 -3 -118 33 -155 38 -39 61 -43 236 -43 l144 0
0 29 c0 16 3 43 6 60 l7 31 -141 0 c-186 0 -178 -12 -140 202 18 99 36 170 45
181 14 14 35 17 143 17 l126 0 27 57 c15 32 23 60 19 63 -4 3 -77 3 -162 0z"/>
<path d="M1960 2674 c-82 -36 -113 -88 -139 -234 -41 -234 -61 -346 -66 -367
-5 -22 -3 -23 59 -23 l63 0 7 53 c4 28 13 86 21 127 8 41 24 127 35 190 28
150 28 150 170 150 132 0 133 0 109 -137 l-11 -63 -93 0 -94 0 -28 -57 c-15
-32 -29 -61 -31 -65 -2 -5 46 -8 107 -8 127 0 118 11 97 -112 l-12 -78 61 0
62 0 27 163 c15 89 34 195 42 236 19 96 18 129 -4 171 -31 58 -68 70 -217 70
-93 -1 -140 -5 -165 -16z"/>
<path d="M2431 2388 c-29 -167 -55 -311 -57 -320 -5 -16 2 -18 56 -18 39 0 62
4 65 13 3 6 23 119 45 251 22 131 43 242 46 247 8 14 238 11 252 -3 7 -7 12
-26 12 -43 0 -43 -26 -126 -42 -136 -7 -5 -47 -9 -89 -9 l-76 0 -27 -51 c-38
-73 -36 -79 27 -79 52 0 53 -1 66 -37 7 -21 19 -51 26 -68 7 -16 17 -42 23
-57 11 -27 15 -28 82 -28 83 0 81 -10 23 124 -29 68 -32 81 -19 88 32 18 77
62 91 88 16 32 45 161 45 203 0 44 -28 94 -65 117 -30 18 -49 20 -232 20
l-199 0 -53 -302z"/>
<path d="M1270 1830 c0 -7 488 -10 1445 -10 957 0 1445 3 1445 10 0 7 -488 10
-1445 10 -957 0 -1445 -3 -1445 -10z"/>
</g>
</svg>
