<svg aria-hidden="true" style="position: absolute; width: 0; height: 0; overflow: hidden;" version="1.1" xmlns="http://www.w3.org/2000/svg" xmlns:xlink="http://www.w3.org/1999/xlink">
<defs>
<symbol id="icon-tools" viewBox="0 0 32 32">
<path d="M27.783 7.936c0.959 2.313 0.502 5.074-1.379 6.955-2.071 2.071-5.201 2.395-7.634 1.022l-1.759 1.921 1.255 1.26 0.75-0.75c0.383-0.384 1.005-0.384 1.388 0l6.082 6.144c0.384 0.383 0.384 1.005 0 1.388l-2.776 2.776c-0.383 0.384-1.005 0.384-1.388 0l-6.082-6.144c-0.384-0.383-0.384-1.005 0-1.388l0.685-0.685-1.196-1.199-8.411 9.189c-0.767 0.767-2.010 0.767-2.776 0l-0.694-0.694c-0.767-0.767-0.767-2.010 0-2.776l9.582-8.025-6.364-6.381-2.010-0.001-2.326-3.74 1.872-1.875 3.825 2.341 0.025 1.968 6.438 6.463 1.873-1.568c-1.831-2.496-1.64-6.012 0.616-8.268 1.872-1.872 4.618-2.337 6.925-1.396l-4.124 4.067 3.471 3.471 4.132-4.075zM6.15 25.934c-0.383-0.383-1.004-0.383-1.388 0-0.384 0.384-0.384 1.005 0 1.389 0.384 0.383 1.005 0.383 1.388 0 0.384-0.385 0.384-1.006 0-1.389z"></path>
</symbol>
<symbol id="icon-electric_car" viewBox="0 0 24 24">
<path d="M18.938 2.016q-0.188-0.469-0.563-0.75t-0.891-0.281h-10.969q-0.516 0-0.891 0.281t-0.563 0.75l-2.063 6v7.969q0 0.422 0.305 0.727t0.68 0.305h1.031q0.375 0 0.68-0.305t0.305-0.727v-0.984h12v0.984q0 0.422 0.305 0.727t0.68 0.305h1.031q0.375 0 0.68-0.305t0.305-0.727v-7.969zM6.516 12q-0.656 0-1.078-0.445t-0.422-1.055 0.422-1.055 1.078-0.445q0.609 0 1.055 0.445t0.445 1.055-0.445 1.055-1.055 0.445zM17.484 12q-0.609 0-1.055-0.445t-0.445-1.055 0.445-1.055 1.055-0.445q0.656 0 1.078 0.445t0.422 1.055-0.422 1.055-1.078 0.445zM5.016 6.984l1.5-4.5h10.969l1.5 4.5h-13.969zM6.984 20.016h4.031v-2.016l6 3h-4.031v2.016z"></path>
</symbol>
<symbol id="icon-local_car_wash" viewBox="0 0 24 24">
<path d="M5.016 12.984h13.969l-1.5-4.5h-10.969zM17.484 18q0.609 0 1.055-0.422t0.445-1.078-0.445-1.078-1.055-0.422-1.055 0.422-0.445 1.078 0.445 1.078 1.055 0.422zM6.516 18q0.609 0 1.055-0.422t0.445-1.078-0.445-1.078-1.055-0.422-1.055 0.422-0.445 1.078 0.445 1.078 1.055 0.422zM18.938 8.016l2.063 6v7.969q0 0.422-0.281 0.727t-0.703 0.305h-1.031q-0.422 0-0.703-0.305t-0.281-0.727v-0.984h-12v0.984q0 0.422-0.281 0.727t-0.703 0.305h-1.031q-0.422 0-0.703-0.305t-0.281-0.727v-7.969l2.063-6q0.328-1.031 1.453-1.031h10.969q1.125 0 1.453 1.031zM6.984 5.016q-0.609 0-1.055-0.445t-0.445-1.055q0-0.422 0.375-1.102t0.75-1.148l0.375-0.469q1.5 1.734 1.5 2.719 0 0.609-0.445 1.055t-1.055 0.445zM12 5.016q-0.656 0-1.078-0.445t-0.422-1.055q0-0.422 0.375-1.102t0.75-1.148l0.375-0.469q1.5 1.734 1.5 2.719 0 0.609-0.422 1.055t-1.078 0.445zM17.016 5.016q-0.609 0-1.055-0.445t-0.445-1.055q0-0.422 0.375-1.102t0.75-1.148l0.375-0.469q1.5 1.734 1.5 2.719 0 0.609-0.445 1.055t-1.055 0.445z"></path>
</symbol>
<symbol id="icon-directions_car" viewBox="0 0 24 24">
<path d="M5.016 11.016h13.969l-1.5-4.5h-10.969zM17.484 15.984q0.609 0 1.055-0.445t0.445-1.055-0.445-1.055-1.055-0.445-1.055 0.445-0.445 1.055 0.445 1.055 1.055 0.445zM6.516 15.984q0.609 0 1.055-0.445t0.445-1.055-0.445-1.055-1.055-0.445-1.055 0.445-0.445 1.055 0.445 1.055 1.055 0.445zM18.938 6l2.063 6v8.016q0 0.422-0.281 0.703t-0.703 0.281h-1.031q-0.422 0-0.703-0.281t-0.281-0.703v-1.031h-12v1.031q0 0.422-0.281 0.703t-0.703 0.281h-1.031q-0.422 0-0.703-0.281t-0.281-0.703v-8.016l2.063-6q0.281-0.984 1.453-0.984h10.969q1.172 0 1.453 0.984z"></path>
</symbol>
<symbol id="icon-logo" viewBox="0 0 37 32">
<path d="M26.976 6.366c-0.007 0.186-0.062 0.495-0.124 0.688-0.096 0.289-0.165 0.365-0.427 0.495-0.186 0.096-0.427 0.158-0.633 0.158-0.179 0-0.344 0.028-0.365 0.069-0.028 0.041 0.041 0.069 0.165 0.069 0.392 0 0.895 0.145 1.046 0.303 0.193 0.2 0.337 0.661 0.337 1.067 0 0.447 0.117 0.261 0.151-0.234 0.055-0.778 0.323-1.032 1.211-1.129 0.495-0.055 0.427-0.103-0.248-0.172-0.647-0.062-0.977-0.44-0.977-1.122 0-0.179-0.034-0.378-0.069-0.434-0.048-0.076-0.069-0.007-0.069 0.241z"></path>
<path d="M28.057 6.276c-0.028 0.069-0.062 0.172-0.083 0.227-0.014 0.062-0.103 0.131-0.186 0.165-0.158 0.062-0.158 0.062 0.034 0.138 0.145 0.055 0.186 0.117 0.186 0.282 0 0.11 0.034 0.206 0.069 0.206 0.041 0 0.069-0.076 0.069-0.165 0-0.186 0.117-0.303 0.392-0.385l0.193-0.055-0.213-0.007c-0.241-0.007-0.344-0.096-0.385-0.351-0.028-0.145-0.041-0.151-0.076-0.055z"></path>
<path d="M26.212 6.744c-0.021 0.117-0.076 0.179-0.186 0.193-0.179 0.028-0.138 0.151 0.062 0.151 0.076 0 0.131 0.048 0.138 0.117 0 0.096 0.014 0.103 0.041 0.021 0.021-0.055 0.083-0.131 0.138-0.158 0.083-0.055 0.083-0.069 0-0.138-0.062-0.048-0.117-0.145-0.131-0.22-0.028-0.117-0.034-0.11-0.062 0.034z"></path>
<path d="M11.080 13.488c-1.197 0.041-1.335 0.083-1.734 0.551-0.22 0.248-0.255 0.358-0.399 1.184-0.083 0.502-0.186 1.094-0.227 1.308-0.089 0.509-0.021 0.812 0.227 1.067 0.261 0.268 0.42 0.296 1.624 0.296h0.991v-0.2c0-0.11 0.021-0.296 0.041-0.413l0.048-0.213h-0.97c-1.28 0-1.225 0.083-0.963-1.39 0.124-0.681 0.248-1.17 0.31-1.246 0.096-0.096 0.241-0.117 0.984-0.117h0.867l0.186-0.392c0.103-0.22 0.158-0.413 0.131-0.434s-0.53-0.021-1.115 0z"></path>
<path d="M13.488 13.598c-0.564 0.248-0.778 0.606-0.957 1.61-0.282 1.61-0.42 2.381-0.454 2.526-0.034 0.151-0.021 0.158 0.406 0.158h0.434l0.048-0.365c0.028-0.193 0.089-0.592 0.145-0.874s0.165-0.874 0.241-1.308c0.193-1.032 0.193-1.032 1.17-1.032 0.908 0 0.915 0 0.75 0.943l-0.076 0.434h-1.287l-0.193 0.392c-0.103 0.22-0.2 0.42-0.213 0.447-0.014 0.034 0.317 0.055 0.736 0.055 0.874 0 0.812-0.076 0.668 0.771l-0.083 0.537h0.846l0.186-1.122c0.103-0.612 0.234-1.342 0.289-1.624 0.131-0.661 0.124-0.888-0.028-1.177-0.213-0.399-0.468-0.482-1.493-0.482-0.64 0.007-0.963 0.034-1.135 0.11z"></path>
<path d="M16.729 15.566c-0.2 1.149-0.378 2.14-0.392 2.202-0.034 0.11 0.014 0.124 0.385 0.124 0.268 0 0.427-0.028 0.447-0.089 0.021-0.041 0.158-0.819 0.31-1.727 0.151-0.902 0.296-1.665 0.317-1.7 0.055-0.096 1.638-0.076 1.734 0.021 0.048 0.048 0.083 0.179 0.083 0.296 0 0.296-0.179 0.867-0.289 0.936-0.048 0.034-0.323 0.062-0.612 0.062h-0.523l-0.186 0.351c-0.262 0.502-0.248 0.544 0.186 0.544 0.358 0 0.365 0.007 0.454 0.255 0.048 0.145 0.131 0.351 0.179 0.468 0.048 0.11 0.117 0.289 0.158 0.392 0.076 0.186 0.103 0.193 0.564 0.193 0.571 0 0.557 0.069 0.158-0.853-0.2-0.468-0.22-0.557-0.131-0.606 0.22-0.124 0.53-0.427 0.626-0.606 0.11-0.22 0.31-1.108 0.31-1.397 0-0.303-0.193-0.647-0.447-0.805-0.206-0.124-0.337-0.138-1.597-0.138h-1.369l-0.365 2.078z"></path>
<path d="M8.74 19.406c0 0.048 3.358 0.069 9.944 0.069s9.944-0.021 9.944-0.069c0-0.048-3.358-0.069-9.944-0.069s-9.944 0.021-9.944 0.069z"></path>
</symbol>
<symbol id="icon-drop" viewBox="0 0 32 32">
<path d="M27.020 14.786c-2.055-5.732-6.41-10.88-11.020-14.786-4.61 3.907-8.965 9.054-11.020 14.786-1.271 3.545-1.396 7.393 0.393 10.794 2.058 3.911 6.207 6.42 10.626 6.42s8.569-2.509 10.626-6.42c1.79-3.401 1.664-7.249 0.393-10.794zM23.086 23.717c-1.369 2.602-4.15 4.283-7.086 4.283-1.723 0-3.391-0.579-4.753-1.583 0.414 0.054 0.832 0.083 1.254 0.083 3.67 0 7.146-2.1 8.856-5.351 1.402-2.665 1.281-5.433 0.746-7.636 0.455 0.88 0.841 1.756 1.151 2.623 0.706 1.971 1.251 4.886-0.168 7.581z"></path>
</symbol>
<symbol id="icon-credit-card" viewBox="0 0 32 32">
<path d="M29 4h-26c-1.65 0-3 1.35-3 3v18c0 1.65 1.35 3 3 3h26c1.65 0 3-1.35 3-3v-18c0-1.65-1.35-3-3-3zM3 6h26c0.542 0 1 0.458 1 1v3h-28v-3c0-0.542 0.458-1 1-1zM29 26h-26c-0.542 0-1-0.458-1-1v-9h28v9c0 0.542-0.458 1-1 1zM4 20h2v4h-2zM8 20h2v4h-2zM12 20h2v4h-2z"></path>
</symbol>
<symbol id="icon-phone" viewBox="0 0 32 32">
<path d="M22 20c-2 2-2 4-4 4s-4-2-6-4-4-4-4-6 2-2 4-4-4-8-6-8-6 6-6 6c0 4 4.109 12.109 8 16s12 8 16 8c0 0 6-4 6-6s-6-8-8-6z"></path>
</symbol>
<symbol id="icon-map2" viewBox="0 0 32 32">
<path d="M21 6l-10-4-11 4v24l11-4 10 4 11-4v-24l-11 4zM12 4.554l8 3.2v19.692l-8-3.2v-19.692zM2 7.401l8-2.909v19.744l-8 2.909v-19.744zM30 24.599l-8 2.909v-19.744l8-2.909v19.744z"></path>
</symbol>
<symbol id="icon-users" viewBox="0 0 36 32">
<path d="M24 24.082v-1.649c2.203-1.241 4-4.337 4-7.432 0-4.971 0-9-6-9s-6 4.029-6 9c0 3.096 1.797 6.191 4 7.432v1.649c-6.784 0.555-12 3.888-12 7.918h28c0-4.030-5.216-7.364-12-7.918z"></path>
<path d="M10.225 24.854c1.728-1.13 3.877-1.989 6.243-2.513-0.47-0.556-0.897-1.176-1.265-1.844-0.95-1.726-1.453-3.627-1.453-5.497 0-2.689 0-5.228 0.956-7.305 0.928-2.016 2.598-3.265 4.976-3.734-0.529-2.39-1.936-3.961-5.682-3.961-6 0-6 4.029-6 9 0 3.096 1.797 6.191 4 7.432v1.649c-6.784 0.555-12 3.888-12 7.918h8.719c0.454-0.403 0.956-0.787 1.506-1.146z"></path>
</symbol>
<symbol id="icon-key2" viewBox="0 0 32 32">
<path d="M31.317 9.82l-3.16-3.159c-0.775-0.775-2.043-2.043-2.818-2.818l-3.16-3.159c-0.775-0.775-2.155-0.911-3.067-0.304l-8.639 5.759c-0.912 0.608-1.257 1.907-0.767 2.887l2.203 4.405c0.067 0.135 0.145 0.278 0.231 0.427l-11.142 11.142-1 7h6v-2h4v-4h4v-4h4v-2.225c0.2 0.119 0.392 0.226 0.569 0.314l4.405 2.203c0.98 0.49 2.279 0.145 2.887-0.767l5.759-8.639c0.608-0.912 0.471-2.292-0.304-3.066zM4.707 26.707l-1.414-1.414 9.737-9.737 1.414 1.414-9.737 9.737zM28.657 13.243l-1.414 1.414c-0.389 0.389-1.025 0.389-1.414 0l-8.485-8.485c-0.389-0.389-0.389-1.025 0-1.414l1.414-1.414c0.389-0.389 1.025-0.389 1.414 0l8.485 8.485c0.389 0.389 0.389 1.025 0 1.414z"></path>
</symbol>
<symbol id="icon-wrench" viewBox="0 0 32 32">
<path d="M31.342 25.559l-14.392-12.336c0.67-1.259 1.051-2.696 1.051-4.222 0-4.971-4.029-9-9-9-0.909 0-1.787 0.135-2.614 0.386l5.2 5.2c0.778 0.778 0.778 2.051 0 2.828l-3.172 3.172c-0.778 0.778-2.051 0.778-2.828 0l-5.2-5.2c-0.251 0.827-0.386 1.705-0.386 2.614 0 4.971 4.029 9 9 9 1.526 0 2.963-0.38 4.222-1.051l12.336 14.392c0.716 0.835 1.938 0.882 2.716 0.104l3.172-3.172c0.778-0.778 0.731-2-0.104-2.716z"></path>
</symbol>
<symbol id="icon-cog" viewBox="0 0 32 32">
<path d="M29.181 19.070c-1.679-2.908-0.669-6.634 2.255-8.328l-3.145-5.447c-0.898 0.527-1.943 0.829-3.058 0.829-3.361 0-6.085-2.742-6.085-6.125h-6.289c0.008 1.044-0.252 2.103-0.811 3.070-1.679 2.908-5.411 3.897-8.339 2.211l-3.144 5.447c0.905 0.515 1.689 1.268 2.246 2.234 1.676 2.903 0.672 6.623-2.241 8.319l3.145 5.447c0.895-0.522 1.935-0.82 3.044-0.82 3.35 0 6.067 2.725 6.084 6.092h6.289c-0.003-1.034 0.259-2.080 0.811-3.038 1.676-2.903 5.399-3.894 8.325-2.219l3.145-5.447c-0.899-0.515-1.678-1.266-2.232-2.226zM16 22.479c-3.578 0-6.479-2.901-6.479-6.479s2.901-6.479 6.479-6.479c3.578 0 6.479 2.901 6.479 6.479s-2.901 6.479-6.479 6.479z"></path>
</symbol>
<symbol id="icon-cogs" viewBox="0 0 32 32">
<path d="M11.366 22.564l1.291-1.807-1.414-1.414-1.807 1.291c-0.335-0.187-0.694-0.337-1.071-0.444l-0.365-2.19h-2l-0.365 2.19c-0.377 0.107-0.736 0.256-1.071 0.444l-1.807-1.291-1.414 1.414 1.291 1.807c-0.187 0.335-0.337 0.694-0.443 1.071l-2.19 0.365v2l2.19 0.365c0.107 0.377 0.256 0.736 0.444 1.071l-1.291 1.807 1.414 1.414 1.807-1.291c0.335 0.187 0.694 0.337 1.071 0.444l0.365 2.19h2l0.365-2.19c0.377-0.107 0.736-0.256 1.071-0.444l1.807 1.291 1.414-1.414-1.291-1.807c0.187-0.335 0.337-0.694 0.444-1.071l2.19-0.365v-2l-2.19-0.365c-0.107-0.377-0.256-0.736-0.444-1.071zM7 27c-1.105 0-2-0.895-2-2s0.895-2 2-2 2 0.895 2 2-0.895 2-2 2zM32 12v-2l-2.106-0.383c-0.039-0.251-0.088-0.499-0.148-0.743l1.799-1.159-0.765-1.848-2.092 0.452c-0.132-0.216-0.273-0.426-0.422-0.629l1.219-1.761-1.414-1.414-1.761 1.219c-0.203-0.149-0.413-0.29-0.629-0.422l0.452-2.092-1.848-0.765-1.159 1.799c-0.244-0.059-0.492-0.109-0.743-0.148l-0.383-2.106h-2l-0.383 2.106c-0.251 0.039-0.499 0.088-0.743 0.148l-1.159-1.799-1.848 0.765 0.452 2.092c-0.216 0.132-0.426 0.273-0.629 0.422l-1.761-1.219-1.414 1.414 1.219 1.761c-0.149 0.203-0.29 0.413-0.422 0.629l-2.092-0.452-0.765 1.848 1.799 1.159c-0.059 0.244-0.109 0.492-0.148 0.743l-2.106 0.383v2l2.106 0.383c0.039 0.251 0.088 0.499 0.148 0.743l-1.799 1.159 0.765 1.848 2.092-0.452c0.132 0.216 0.273 0.426 0.422 0.629l-1.219 1.761 1.414 1.414 1.761-1.219c0.203 0.149 0.413 0.29 0.629 0.422l-0.452 2.092 1.848 0.765 1.159-1.799c0.244 0.059 0.492 0.109 0.743 0.148l0.383 2.106h2l0.383-2.106c0.251-0.039 0.499-0.088 0.743-0.148l1.159 1.799 1.848-0.765-0.452-2.092c0.216-0.132 0.426-0.273 0.629-0.422l1.761 1.219 1.414-1.414-1.219-1.761c0.149-0.203 0.29-0.413 0.422-0.629l2.092 0.452 0.765-1.848-1.799-1.159c0.059-0.244 0.109-0.492 0.148-0.743l2.106-0.383zM21 15.35c-2.402 0-4.35-1.948-4.35-4.35s1.948-4.35 4.35-4.35 4.35 1.948 4.35 4.35c0 2.402-1.948 4.35-4.35 4.35z"></path>
</symbol>
<symbol id="icon-clipboard" viewBox="0 0 32 32">
<path d="M29 4h-9c0-2.209-1.791-4-4-4s-4 1.791-4 4h-9c-0.552 0-1 0.448-1 1v26c0 0.552 0.448 1 1 1h26c0.552 0 1-0.448 1-1v-26c0-0.552-0.448-1-1-1zM16 2c1.105 0 2 0.895 2 2s-0.895 2-2 2c-1.105 0-2-0.895-2-2s0.895-2 2-2zM28 30h-24v-24h4v3c0 0.552 0.448 1 1 1h14c0.552 0 1-0.448 1-1v-3h4v24z"></path>
<path d="M14 26.828l-6.414-7.414 1.828-1.828 4.586 3.586 8.586-7.586 1.829 1.828z"></path>
</symbol>
<symbol id="icon-instagram" viewBox="0 0 32 32">
<path d="M16 2.881c4.275 0 4.781 0.019 6.462 0.094 1.563 0.069 2.406 0.331 2.969 0.55 0.744 0.288 1.281 0.638 1.837 1.194 0.563 0.563 0.906 1.094 1.2 1.838 0.219 0.563 0.481 1.412 0.55 2.969 0.075 1.688 0.094 2.194 0.094 6.463s-0.019 4.781-0.094 6.463c-0.069 1.563-0.331 2.406-0.55 2.969-0.288 0.744-0.637 1.281-1.194 1.837-0.563 0.563-1.094 0.906-1.837 1.2-0.563 0.219-1.413 0.481-2.969 0.55-1.688 0.075-2.194 0.094-6.463 0.094s-4.781-0.019-6.463-0.094c-1.563-0.069-2.406-0.331-2.969-0.55-0.744-0.288-1.281-0.637-1.838-1.194-0.563-0.563-0.906-1.094-1.2-1.837-0.219-0.563-0.481-1.413-0.55-2.969-0.075-1.688-0.094-2.194-0.094-6.463s0.019-4.781 0.094-6.463c0.069-1.563 0.331-2.406 0.55-2.969 0.288-0.744 0.638-1.281 1.194-1.838 0.563-0.563 1.094-0.906 1.838-1.2 0.563-0.219 1.412-0.481 2.969-0.55 1.681-0.075 2.188-0.094 6.463-0.094zM16 0c-4.344 0-4.887 0.019-6.594 0.094-1.7 0.075-2.869 0.35-3.881 0.744-1.056 0.412-1.95 0.956-2.837 1.85-0.894 0.888-1.438 1.781-1.85 2.831-0.394 1.019-0.669 2.181-0.744 3.881-0.075 1.713-0.094 2.256-0.094 6.6s0.019 4.887 0.094 6.594c0.075 1.7 0.35 2.869 0.744 3.881 0.413 1.056 0.956 1.95 1.85 2.837 0.887 0.887 1.781 1.438 2.831 1.844 1.019 0.394 2.181 0.669 3.881 0.744 1.706 0.075 2.25 0.094 6.594 0.094s4.888-0.019 6.594-0.094c1.7-0.075 2.869-0.35 3.881-0.744 1.050-0.406 1.944-0.956 2.831-1.844s1.438-1.781 1.844-2.831c0.394-1.019 0.669-2.181 0.744-3.881 0.075-1.706 0.094-2.25 0.094-6.594s-0.019-4.887-0.094-6.594c-0.075-1.7-0.35-2.869-0.744-3.881-0.394-1.063-0.938-1.956-1.831-2.844-0.887-0.887-1.781-1.438-2.831-1.844-1.019-0.394-2.181-0.669-3.881-0.744-1.712-0.081-2.256-0.1-6.6-0.1v0z"></path>
<path d="M16 7.781c-4.537 0-8.219 3.681-8.219 8.219s3.681 8.219 8.219 8.219 8.219-3.681 8.219-8.219c0-4.537-3.681-8.219-8.219-8.219zM16 21.331c-2.944 0-5.331-2.387-5.331-5.331s2.387-5.331 5.331-5.331c2.944 0 5.331 2.387 5.331 5.331s-2.387 5.331-5.331 5.331z"></path>
<path d="M26.462 7.456c0 1.060-0.859 1.919-1.919 1.919s-1.919-0.859-1.919-1.919c0-1.060 0.859-1.919 1.919-1.919s1.919 0.859 1.919 1.919z"></path>
</symbol>
<symbol id="icon-logo-removebg-preview-1" viewBox="0 0 37 32">
<path fill="#18080e" style="fill: var(--color1, #18080e)" opacity="0.141" d="M28.181 6.297c-0.117-0.091-0.208-0.068-0.275 0.069-0.030-0.228 0.016-0.434 0.138-0.619 0.119 0.162 0.165 0.345 0.138 0.551z"></path>
<path fill="#240706" style="fill: var(--color2, #240706)" opacity="0.059" d="M27.148 6.779c-0.023 0-0.046 0-0.069 0 0-0.046 0-0.092 0-0.138 0.022-0.211-0.001-0.418-0.069-0.619-0.046 0.193-0.092 0.377-0.138 0.551-0.070-0.277-0.070-0.553 0-0.826 0.112-0.010 0.192 0.036 0.241 0.138 0.034 0.297 0.046 0.596 0.034 0.895z"></path>
<path fill="#7f1519" style="fill: var(--color3, #7f1519)" opacity="0.961" d="M28.181 6.297c0.016 0.107 0.062 0.199 0.138 0.275 0.029 0.050 0.075 0.084 0.138 0.103-0.038 0.026-0.061 0.061-0.069 0.103-0.024 0.058-0.069 0.081-0.138 0.069 0-0.092 0-0.183 0-0.275-0.115 0-0.229 0-0.344 0 0 0.092 0 0.184 0 0.275 0.092 0 0.184 0 0.275 0 0.016 0.238-0.076 0.306-0.275 0.206-0.004-0.076-0.027-0.145-0.069-0.206-0.073-0.11-0.073-0.225 0-0.344 0.058-0.024 0.081-0.069 0.069-0.138 0.067-0.137 0.159-0.16 0.275-0.069z"></path>
<path fill="#8d1513" style="fill: var(--color4, #8d1513)" d="M27.080 6.641c-0.102 0.104-0.193 0.218-0.275 0.344-0.012-0.146 0.011-0.284 0.069-0.413 0.046-0.174 0.092-0.357 0.138-0.551 0.068 0.202 0.091 0.408 0.069 0.619z"></path>
<path fill="#491415" style="fill: var(--color5, #491415)" opacity="0.29" d="M27.837 6.503c-0.073 0.119-0.073 0.234 0 0.344-0.623-0.084-0.623-0.199 0-0.344z"></path>
<path fill="#db0f0f" style="fill: var(--color6, #db0f0f)" d="M28.249 6.847c-0.023 0-0.046 0-0.069 0-0.092 0-0.184 0-0.275 0 0-0.092 0-0.183 0-0.275 0.115 0 0.229 0 0.344 0 0 0.092 0 0.184 0 0.275z"></path>
<path fill="#1f0b0e" style="fill: var(--color7, #1f0b0e)" opacity="0.11" d="M28.387 6.779c0.008-0.043 0.031-0.077 0.069-0.103-0.063-0.019-0.109-0.054-0.138-0.103 0.131 0.005 0.257-0.018 0.378-0.069 0.245 0.182 0.21 0.297-0.103 0.344-0.075-0.013-0.143-0.036-0.206-0.069z"></path>
<path fill="#370e11" style="fill: var(--color8, #370e11)" opacity="0.176" d="M26.804 6.985c0 0.046 0 0.092 0 0.138-0.023 0-0.046 0-0.069 0-0.107-0.006-0.222-0.017-0.344-0.034-0.049 0.137-0.118 0.263-0.206 0.378-0.042-0.087-0.088-0.202-0.138-0.344-0.191 0.033-0.329-0.036-0.413-0.206 0.145-0.099 0.306-0.145 0.482-0.138 0.066-0.44 0.158-0.428 0.275 0.034 0.161 0.016 0.299 0.074 0.413 0.172z"></path>
<path fill="#aa1b21" style="fill: var(--color9, #aa1b21)" d="M26.047 6.847c0.092 0 0.184 0 0.275 0-0.045 0.331-0.183 0.366-0.413 0.103 0.063-0.019 0.109-0.054 0.138-0.103z"></path>
<path fill="#75070a" style="fill: var(--color10, #75070a)" opacity="0.42" d="M27.080 6.779c0.023 0 0.046 0 0.069 0 0.055 0.106 0.078 0.221 0.069 0.344-0.118-0.078-0.164-0.193-0.138-0.344z"></path>
<path fill="#1f080c" style="fill: var(--color11, #1f080c)" opacity="0.03" d="M28.181 6.847c0.023 0 0.046 0 0.069 0-0.001 0.21-0.023 0.416-0.069 0.619-0.144-0.004-0.247-0.073-0.31-0.206-0.051-0.086-0.039-0.155 0.034-0.206 0.2 0.1 0.291 0.031 0.275-0.206z"></path>
<path fill="#68050a" style="fill: var(--color12, #68050a)" opacity="0.459" d="M26.735 7.123c0.023 0 0.046 0 0.069 0-0.105 0.288-0.311 0.449-0.619 0.482 0.224-0.109 0.408-0.27 0.551-0.482z"></path>
<path fill="#000" style="fill: var(--color13, #000)" opacity="0.018" d="M25.359 7.535c0.027-0.071 0.073-0.082 0.138-0.034-0.041 0.032-0.087 0.043-0.138 0.034z"></path>
<path fill="#76050b" style="fill: var(--color14, #76050b)" opacity="0.012" d="M27.217 7.123c0.179 0.227 0.408 0.388 0.688 0.482 0.068-0.012 0.114 0.011 0.138 0.069-0.278-0.002-0.53-0.082-0.757-0.241-0.061-0.093-0.084-0.197-0.069-0.31z"></path>
<path fill="#0f0017" style="fill: var(--color15, #0f0017)" opacity="0.047" d="M28.456 7.535c0.027-0.071 0.073-0.082 0.138-0.034-0.041 0.032-0.087 0.043-0.138 0.034z"></path>
<path fill="#ef0809" style="fill: var(--color16, #ef0809)" d="M27.080 6.641c0 0.046 0 0.092 0 0.138-0.026 0.151 0.020 0.266 0.138 0.344-0.015 0.113 0.008 0.216 0.069 0.31 0.227 0.159 0.479 0.239 0.757 0.241 0.046 0 0.092 0 0.138 0-0.109 0.129-0.247 0.221-0.413 0.275-0.023 0-0.046 0-0.069 0-0.174-0.017-0.289 0.052-0.344 0.206-0.172 0.091-0.299 0.228-0.378 0.413-0.026-0.038-0.061-0.061-0.103-0.069-0.041-0.096-0.11-0.165-0.206-0.206 0-0.023 0-0.046 0-0.069-0.001-0.104-0.047-0.185-0.138-0.241-0.202-0.079-0.409-0.148-0.619-0.206 0.038-0.026 0.061-0.061 0.069-0.103 0.046 0 0.069-0.023 0.069-0.069 0.046 0 0.092 0 0.138 0 0.308-0.033 0.514-0.194 0.619-0.482 0-0.046 0-0.092 0-0.138 0.082-0.126 0.174-0.24 0.275-0.344z"></path>
<path fill="#270b0f" style="fill: var(--color17, #270b0f)" opacity="0.161" d="M26.047 7.604c0 0.046-0.023 0.069-0.069 0.069-0.264-0.039-0.493 0.007-0.688 0.138-0.168 0.010-0.214-0.047-0.138-0.172 0.244-0.019 0.484-0.054 0.723-0.103 0.062 0.017 0.119 0.040 0.172 0.069z"></path>
<path fill="#751216" style="fill: var(--color18, #751216)" opacity="0.925" d="M28.181 7.673c0.508 0.013 0.531 0.082 0.069 0.206-0.165 0.083-0.326 0.106-0.482 0.069 0.166-0.055 0.304-0.146 0.413-0.275z"></path>
<path fill="#280a0d" style="fill: var(--color19, #280a0d)" opacity="0.192" d="M27.905 7.604c0.041-0.044 0.098-0.067 0.172-0.069 0.262 0.044 0.526 0.079 0.791 0.103 0.090 0.096 0.067 0.165-0.069 0.206-0.182 0.034-0.366 0.046-0.551 0.034 0.463-0.125 0.44-0.194-0.069-0.206-0.046 0-0.092 0-0.138 0-0.024-0.058-0.069-0.081-0.138-0.069z"></path>
<path fill="#7a0d15" style="fill: var(--color20, #7a0d15)" opacity="0.843" d="M25.979 7.673c-0.008 0.042-0.031 0.077-0.069 0.103 0.211 0.058 0.417 0.127 0.619 0.206 0.091 0.056 0.137 0.136 0.138 0.241-0.078-0.043-0.146-0.1-0.206-0.172-0.397-0.094-0.787-0.174-1.17-0.241 0.195-0.131 0.425-0.177 0.688-0.138z"></path>
<path fill="#790514" style="fill: var(--color21, #790514)" opacity="0.525" d="M27.699 7.948c-0.096 0.096-0.211 0.164-0.344 0.206 0.055-0.154 0.17-0.223 0.344-0.206z"></path>
<path fill="#e8e8e9" style="fill: var(--color22, #e8e8e9)" d="M23.983 8.499c0.073 0.064 0.165 0.087 0.275 0.069 1.035 0.237 1.896 0.765 2.581 1.583 0.219 0.3 0.436 0.598 0.654 0.895-0.005 0.105 0.041 0.174 0.138 0.206 0.237-0.301 0.512-0.565 0.826-0.791 0.805-0.050 1.608-0.027 2.409 0.069 0.392 0.137 0.587 0.401 0.585 0.791-0.062 0.083-0.142 0.14-0.241 0.172-0.917 0.078-1.834 0.135-2.753 0.172-0.091 0.012-0.171-0.011-0.241-0.069-0.033 0.065-0.045 0.134-0.034 0.206 0.133 0.068 0.27 0.137 0.413 0.206 0.148 0.085 0.308 0.154 0.482 0.206 1.602 0.721 2.554 1.959 2.856 3.716 0.080 0.409 0.114 0.822 0.103 1.239 0.020 0.154-0.003 0.291-0.069 0.413-0.327-1.654-1.107-3.042-2.34-4.163-0.524-0.365-1.074-0.675-1.652-0.929-0.244-0.097-0.473-0.224-0.688-0.379-0.050-0.096-0.084-0.2-0.103-0.31-0.070-0.058-0.15-0.081-0.241-0.069-0.479-0.777-1.098-1.419-1.858-1.927-0.082-0.17-0.219-0.239-0.413-0.206-0.713-0.237-1.447-0.364-2.202-0.379-2.546-0.046-5.092-0.046-7.639 0-1.382-0.031-2.575 0.417-3.579 1.342-0.167 0.006-0.305 0.075-0.413 0.206-0.053 0.154-0.133 0.292-0.241 0.413-0.034 0.089-0.045 0.181-0.034 0.275-0.181 0.303-0.387 0.59-0.619 0.86-0.545 0.181-1.073 0.399-1.583 0.654-0.091 0.012-0.171-0.011-0.241-0.069-0.034 0.089-0.045 0.181-0.034 0.275-0.644 0.436-1.195 0.963-1.652 1.583-0.043-0.008-0.077-0.031-0.103-0.069-0.034 0.089-0.045 0.181-0.034 0.275-0.072-0.010-0.141 0.001-0.206 0.034 0.058 0.070 0.081 0.15 0.069 0.241-0.203 0.474-0.386 0.956-0.551 1.445-0.082 0.038-0.162 0.061-0.241 0.069-0.034-0.112-0.045-0.227-0.034-0.344-0.004-0.165 0.019-0.326 0.069-0.482 0.064-0.073 0.087-0.165 0.069-0.275 0.149-0.848 0.516-1.582 1.101-2.202 0.097-0.033 0.143-0.101 0.138-0.206 0.401-0.401 0.86-0.722 1.376-0.963 0.095 0.011 0.186-0.001 0.275-0.034 0.2-0.085 0.384-0.188 0.551-0.31 0.053-0.053 0.121-0.087 0.206-0.103-0.016-0.027-0.039-0.039-0.069-0.034-0.023-0.069-0.069-0.115-0.138-0.138-0.823-0.136-1.671-0.182-2.546-0.138-0.123 0.009-0.238-0.014-0.344-0.069-0.060-0.153-0.083-0.313-0.069-0.482 0.063-0.144 0.143-0.282 0.241-0.413 0.023 0.023 0.046 0.046 0.069 0.069 0.272-0.118 0.559-0.164 0.86-0.138 0.573 0 1.147 0 1.72 0 0.107 0.016 0.199 0.062 0.275 0.138-0.005 0.105 0.041 0.174 0.138 0.206 0.092 0.046 0.161 0.115 0.206 0.206-0.005 0.105 0.041 0.174 0.138 0.206 0.457-0.611 0.985-1.219 1.583-1.824 0.939-0.683 1.994-1.050 3.166-1.101 2.867-0.137 5.735-0.137 8.602 0 0.347 0.044 0.691 0.102 1.032 0.172z"></path>
<path fill="#272728" style="fill: var(--color23, #272728)" opacity="0.016" d="M24.258 8.568c-0.11 0.018-0.202-0.005-0.275-0.069-0.004-0.030 0.007-0.053 0.034-0.069 0.090 0.040 0.17 0.086 0.241 0.138z"></path>
<path fill="#3a0802" style="fill: var(--color24, #3a0802)" opacity="0.086" d="M26.667 8.292c0.096 0.041 0.165 0.11 0.206 0.206 0 0.138 0 0.275 0 0.413-0.060-0.203-0.129-0.409-0.206-0.619z"></path>
<path fill="#ab1617" style="fill: var(--color25, #ab1617)" opacity="0.98" d="M27.355 8.155c-0.050 0.169-0.119 0.329-0.206 0.482-0.046 0.174-0.092 0.357-0.138 0.551-0.046-0.1-0.092-0.191-0.138-0.275 0-0.138 0-0.275 0-0.413 0.042 0.008 0.077 0.031 0.103 0.069 0.080-0.185 0.206-0.322 0.378-0.413z"></path>
<path fill="#797c82" style="fill: var(--color26, #797c82)" opacity="0.902" d="M31.553 8.981c0.056 0.113 0.148 0.193 0.275 0.241-0.126 0.034-0.206 0.115-0.241 0.241-0.057-0.103-0.138-0.184-0.241-0.241 0.133-0.029 0.201-0.109 0.206-0.241z"></path>
<path fill="#8e8e92" style="fill: var(--color27, #8e8e92)" opacity="0.984" d="M24.671 9.6c0.194-0.033 0.331 0.036 0.413 0.206-0.141-0.069-0.278-0.138-0.413-0.206z"></path>
<path fill="#330b11" style="fill: var(--color28, #330b11)" opacity="0.071" d="M27.148 8.637c0 0.344 0 0.688 0 1.032-0.069 0-0.138 0-0.206 0-0.051-0.249-0.074-0.501-0.069-0.757 0.046 0.084 0.091 0.176 0.138 0.275 0.046-0.193 0.092-0.377 0.138-0.551z"></path>
<path fill="#c7c8cb" style="fill: var(--color29, #c7c8cb)" opacity="0.985" d="M32.585 9.669c0.046 0.046 0.092 0.092 0.138 0.138-0.224 0.031-0.385 0.146-0.482 0.344-0.046 0.046-0.092 0.092-0.138 0.138-0.056-0.278-0.217-0.439-0.482-0.482 0.023-0.046 0.046-0.092 0.069-0.138 0.322-0.139 0.471-0.391 0.447-0.757 0.058 0.211 0.127 0.417 0.206 0.619 0.077 0.055 0.157 0.101 0.241 0.138z"></path>
<path fill="#575a60" style="fill: var(--color30, #575a60)" opacity="0.541" d="M31.69 9.669c-0.023 0.046-0.046 0.092-0.069 0.138-0.429-0.022-0.406-0.068 0.069-0.138z"></path>
<path fill="#585a5f" style="fill: var(--color31, #585a5f)" opacity="0.471" d="M32.585 9.669c0.142 0.013 0.28 0.047 0.413 0.103-0.089 0.034-0.181 0.045-0.275 0.034-0.046-0.046-0.092-0.092-0.138-0.138z"></path>
<path fill="#000" style="fill: var(--color13, #000)" opacity="0.012" d="M31.828 10.013c0.092 0.046 0.092 0.046 0 0z"></path>
<path fill="#81838c" style="fill: var(--color32, #81838c)" opacity="0.969" d="M32.654 10.082c0.056 0.113 0.148 0.193 0.275 0.241-0.098 0.032-0.179 0.089-0.241 0.172-0.053-0.093-0.133-0.15-0.241-0.172 0.133-0.029 0.201-0.109 0.206-0.241z"></path>
<path fill="#37383d" style="fill: var(--color33, #37383d)" opacity="0.027" d="M32.241 10.151c-0.002 0.167-0.036 0.328-0.103 0.482-0.019-0.11-0.053-0.213-0.103-0.31 0.016-0.027 0.039-0.039 0.069-0.034 0.046-0.046 0.092-0.092 0.138-0.138z"></path>
<path fill="#737476" style="fill: var(--color34, #737476)" opacity="0.718" d="M8.843 10.495c-0.573 0-1.147 0-1.72 0 0.532-0.047 1.071-0.093 1.617-0.138 0.049 0.037 0.084 0.083 0.103 0.138z"></path>
<path fill="#71707e" style="fill: var(--color35, #71707e)" opacity="0.765" d="M9.118 10.632c0.097 0.033 0.143 0.101 0.138 0.206-0.097-0.033-0.143-0.101-0.138-0.206z"></path>
<path fill="#bbbbbf" style="fill: var(--color36, #bbbbbf)" d="M11.252 10.563c-0.232 0.3-0.461 0.598-0.688 0.895-0.011-0.095 0.001-0.186 0.034-0.275 0.108-0.121 0.188-0.259 0.241-0.413 0.108-0.132 0.246-0.201 0.413-0.206z"></path>
<path fill="#75767d" style="fill: var(--color37, #75767d)" opacity="0.859" d="M5.953 10.976c-0.014 0.169 0.009 0.329 0.069 0.482-0.218-0.137-0.241-0.297-0.069-0.482z"></path>
<path fill="#5f5f5f" style="fill: var(--color38, #5f5f5f)" opacity="0.447" d="M9.462 11.045c0.097 0.033 0.143 0.101 0.138 0.206-0.097-0.033-0.143-0.101-0.138-0.206z"></path>
<path fill="#2e2d35" style="fill: var(--color39, #2e2d35)" opacity="0.071" d="M27.492 11.045c0.097 0.033 0.143 0.101 0.138 0.206-0.097-0.033-0.143-0.101-0.138-0.206z"></path>
<path fill="#9c9da1" style="fill: var(--color40, #9c9da1)" opacity="0.641" d="M6.366 11.527c0.875-0.044 1.724 0.001 2.546 0.138-0.023 0-0.046 0-0.069 0-0.835-0.043-1.66-0.089-2.477-0.138z"></path>
<path fill="#919196" style="fill: var(--color41, #919196)" d="M28.456 11.665c-0.054 0.11-0.146 0.156-0.275 0.138-0.010-0.072 0.001-0.141 0.034-0.206 0.070 0.058 0.15 0.081 0.241 0.069z"></path>
<path fill="#2b282c" style="fill: var(--color42, #2b282c)" opacity="0.141" d="M8.843 11.665c0.023 0 0.046 0 0.069 0 0.069 0.023 0.115 0.069 0.138 0.138-0.105 0.005-0.174-0.041-0.206-0.138z"></path>
<path fill="#949499" style="fill: var(--color43, #949499)" opacity="0.906" d="M8.912 11.94c-0.167 0.122-0.35 0.225-0.551 0.31-0.089 0.034-0.181 0.045-0.275 0.034 0.245-0.166 0.521-0.281 0.826-0.344z"></path>
<path fill="#202022" style="fill: var(--color44, #202022)" opacity="0.031" d="M28.594 12.009c0.206-0.023 0.366 0.046 0.482 0.206-0.173-0.053-0.334-0.121-0.482-0.206z"></path>
<path fill="#aeafb2" style="fill: var(--color45, #aeafb2)" d="M26.942 11.733c0.091-0.012 0.171 0.011 0.241 0.069 0.019 0.11 0.053 0.213 0.103 0.31 0.215 0.155 0.444 0.281 0.688 0.379-0.507-0.035-0.851-0.288-1.032-0.757z"></path>
<path fill="#8c8d8e" style="fill: var(--color46, #8c8d8e)" d="M8.361 12.972c-0.089 0.068-0.181 0.137-0.275 0.206-0.011-0.095 0.001-0.186 0.034-0.275 0.070 0.058 0.15 0.081 0.241 0.069z"></path>
<path fill="#6f6f6f" style="fill: var(--color47, #6f6f6f)" opacity="0.702" d="M6.71 13.247c0.005 0.105-0.041 0.174-0.138 0.206-0.005-0.105 0.041-0.174 0.138-0.206z"></path>
<path fill="#6d0b10" style="fill: var(--color48, #6d0b10)" opacity="0.504" d="M12.077 13.867c0-0.138 0-0.275 0-0.413-0.666-0.011-1.331 0-1.996 0.034-0.114 0.042-0.229 0.076-0.344 0.103 0.058-0.101 0.15-0.158 0.275-0.172 0.714-0.013 1.425-0.047 2.133-0.103 0.084 0.027 0.13 0.084 0.138 0.172-0.044 0.146-0.113 0.272-0.206 0.379z"></path>
<path fill="#6a0a0d" style="fill: var(--color49, #6a0a0d)" opacity="0.492" d="M15.931 13.66c-0.915-0.275-1.833-0.275-2.753 0 0.122-0.131 0.282-0.211 0.482-0.241 0.642-0.046 1.285-0.046 1.927 0 0.164 0.015 0.278 0.096 0.344 0.241z"></path>
<path fill="#6b0a0d" style="fill: var(--color50, #6b0a0d)" opacity="0.499" d="M17.032 13.454c0.929-0.080 1.869-0.091 2.822-0.034 0.593 0.28 0.8 0.728 0.619 1.342 0.061-0.589-0.169-1.013-0.688-1.273-0.917-0.034-1.835-0.046-2.753-0.034z"></path>
<path fill="#838489" style="fill: var(--color51, #838489)" opacity="0.457" d="M26.254 13.454c0.722-0.068 1.456-0.091 2.202-0.069-0.083 0.327-0.221 0.625-0.413 0.895 0.020-0.216 0.077-0.422 0.172-0.619 0.034-0.080 0.092-0.138 0.172-0.172-0.711-0.034-1.422-0.046-2.133-0.034z"></path>
<path fill="#f0f0f0" style="fill: var(--color52, #f0f0f0)" d="M24.396 15.381c0.115-0.427 0.149-0.863 0.103-1.308-0.116-0.351-0.357-0.569-0.723-0.654-0.826-0.046-1.652-0.046-2.477 0-0.061 0.093-0.084 0.197-0.069 0.31 0.011 0.185-0 0.368-0.034 0.551-0.019 0.063-0.054 0.109-0.103 0.138 0 0.046 0 0.092 0 0.138-0.023 0.092-0.046 0.184-0.069 0.275-0.064 0.295-0.11 0.593-0.138 0.895 0.011 0.231-0 0.46-0.034 0.688-0.026 0.038-0.061 0.061-0.103 0.069-0.069 0.365-0.137 0.732-0.206 1.101 0 0.092 0 0.184 0 0.275 0.78 0 1.56 0 2.34 0 0.467-0.015 0.811-0.222 1.032-0.619-0.003-0.177 0.066-0.315 0.206-0.413 0.058-0.129 0.081-0.267 0.069-0.413-0.018-0.11 0.005-0.202 0.069-0.275 0-0.023 0-0.046 0-0.069-0.011-0.208 0-0.414 0.034-0.619 0.026-0.038 0.061-0.061 0.103-0.069zM23.432 14.348c0.103 0.056 0.149 0.148 0.138 0.275-0.097 0.717-0.223 1.428-0.378 2.133-0.050 0.107-0.13 0.176-0.241 0.206-0.482 0.011-0.964 0-1.445-0.034-0.052-0.046-0.075-0.104-0.069-0.172 0.081-0.069 0.173-0.127 0.275-0.172-0.023-0.023-0.046-0.046-0.069-0.069 0.137-0.671 0.251-1.348 0.344-2.030 0.462-0.131 0.944-0.177 1.445-0.138z"></path>
<path fill="#efeff0" style="fill: var(--color53, #efeff0)" d="M26.185 13.454c0.023 0 0.046 0 0.069 0 0.712-0.011 1.423 0 2.133 0.034-0.080 0.034-0.138 0.092-0.172 0.172-0.095 0.197-0.152 0.404-0.172 0.619-0.584 0.057-1.181 0.092-1.789 0.103-0.082 0.048-0.151 0.105-0.206 0.172-0.042 0.008-0.077 0.031-0.103 0.069-0.034 0.182-0.046 0.366-0.034 0.551 0 0.023 0 0.046 0 0.069-0.077 0.1-0.088 0.214-0.034 0.344 0.068-0.039 0.126-0.085 0.172-0.138 0.117-0.013 0.208-0.070 0.275-0.172 0.609-0.057 1.205-0.045 1.789 0.034-0.014 0.208-0.037 0.414-0.069 0.619-0.762 0.134-1.542 0.18-2.34 0.138 0 0.115 0 0.229 0 0.344-0.011 0.162 0 0.323 0.034 0.482 0.026 0.038 0.061 0.061 0.103 0.069 0.63 0.068 1.272 0.091 1.927 0.069 0 0.092 0 0.184 0 0.275 0.019 0.203-0.004 0.398-0.069 0.585-0.723 0.057-1.434 0.045-2.133-0.034-0.156-0.059-0.259-0.174-0.31-0.344-0.023 0.023-0.046 0.046-0.069 0.069-0.092-0.074-0.195-0.12-0.31-0.138-0.101-0.173-0.147-0.368-0.138-0.585 0.017-0.219 0.040-0.437 0.069-0.654 0.062-0.049 0.085-0.118 0.069-0.206 0.005-0.186 0.028-0.37 0.069-0.551 0.042-0.061 0.065-0.13 0.069-0.206 0.013-0.328 0.071-0.649 0.172-0.963 0.094-0.19 0.221-0.351 0.378-0.482 0.105 0.005 0.174-0.041 0.206-0.138 0.17-0.018 0.307-0.086 0.413-0.206z"></path>
<path fill="#f70304" style="fill: var(--color54, #f70304)" d="M10.151 14.28c-0.106 0.014-0.198 0.060-0.275 0.138-0.124 0.593-0.216 1.19-0.275 1.789-0.126 0.208-0.161 0.437-0.103 0.688 0.049 0.061 0.106 0.106 0.172 0.138 0.584 0.068 1.18 0.091 1.789 0.069 0.017 0.212-0.006 0.418-0.069 0.619-0.664 0.080-1.329 0.092-1.996 0.034-0.17-0.068-0.331-0.148-0.482-0.241-0.097-0.033-0.143-0.101-0.138-0.206-0.062-0.48-0.062-0.961 0-1.445 0-0.023 0-0.046 0-0.069 0.090-0.288 0.17-0.587 0.241-0.895 0.034-0.182 0.046-0.366 0.034-0.551 0-0.023 0-0.046 0-0.069 0.178-0.219 0.384-0.403 0.619-0.551 0.139 0.011 0.277-0 0.413-0.034 0.031-0.028 0.054-0.063 0.069-0.103 0.618-0.069 1.237-0.092 1.858-0.069-0.073 0.232-0.142 0.461-0.206 0.688-0.563-0.022-1.114 0.001-1.652 0.069z"></path>
<path fill="#f80304" style="fill: var(--color55, #f80304)" d="M20.129 15.725c-0.112 0.113-0.192 0.251-0.241 0.413-0.246 0.036-0.395 0.174-0.447 0.413 0.138 0.345 0.276 0.689 0.413 1.032 0 0.069 0 0.138 0 0.206-0.275 0-0.551 0-0.826 0 0.016-0.089-0.007-0.158-0.069-0.206-0.042-0.2-0.134-0.36-0.275-0.482-0.007-0.216-0.076-0.399-0.206-0.551-0.192-0.067-0.398-0.090-0.619-0.069 0.026-0.167 0.072-0.327 0.138-0.482 0.078-0.043 0.146-0.1 0.206-0.172 0.423-0.002 0.836-0.060 1.239-0.172 0.044-0.079 0.102-0.148 0.172-0.206 0.071-0.387 0.105-0.777 0.103-1.17-0.069 0-0.138 0-0.206 0-0.638-0.041-1.257 0.005-1.858 0.138-0.042 0.008-0.077 0.031-0.103 0.069-0.070 0.724-0.208 1.435-0.413 2.133-0.034 0.389-0.046 0.779-0.034 1.17-0.286 0.040-0.538-0.006-0.757-0.138 0.090-0.361 0.136-0.728 0.138-1.101 0-0.023 0-0.046 0-0.069 0.127-0.252 0.196-0.527 0.206-0.826 0.085-0.118 0.131-0.256 0.138-0.413 0.069 0 0.138 0 0.206 0 0.013-0.574 0.036-1.147 0.069-1.72 0.751-0.029 1.497 0.016 2.237 0.138 0.227 0.1 0.445 0.214 0.654 0.344 0.085-0.051 0.177-0.074 0.275-0.069-0.005 0.098 0.017 0.19 0.069 0.275-0.035 0.515-0.103 1.020-0.206 1.514z"></path>
<path fill="#818386" style="fill: var(--color56, #818386)" opacity="0.776" d="M26.185 13.454c-0.105 0.12-0.243 0.189-0.413 0.206 0.105-0.12 0.243-0.189 0.413-0.206z"></path>
<path fill="#560509" style="fill: var(--color57, #560509)" opacity="0.325" d="M9.738 13.591c-0.023 0.046-0.046 0.092-0.069 0.138-0.235 0.148-0.442 0.331-0.619 0.551 0.115-0.344 0.344-0.573 0.688-0.688z"></path>
<path fill="#6d6d72" style="fill: var(--color58, #6d6d72)" opacity="0.686" d="M25.772 13.66c-0.033 0.097-0.101 0.143-0.206 0.138 0.033-0.097 0.101-0.143 0.206-0.138z"></path>
<path fill="#540608" style="fill: var(--color59, #540608)" opacity="0.549" d="M13.178 13.66c-0.115 0.161-0.252 0.298-0.413 0.413 0.069-0.206 0.206-0.344 0.413-0.413z"></path>
<path fill="#73070e" style="fill: var(--color60, #73070e)" opacity="0.478" d="M17.032 13.454c-0.007 0.485-0.099 0.944-0.275 1.376 0.048-0.476 0.14-0.935 0.275-1.376z"></path>
<path fill="#d41214" style="fill: var(--color61, #d41214)" d="M12.077 13.867c-0.14 0.097-0.209 0.235-0.206 0.413-0.573 0-1.147 0-1.72 0 0.538-0.068 1.088-0.091 1.652-0.069 0.065-0.227 0.133-0.457 0.206-0.688-0.621-0.023-1.24 0-1.858 0.069-0.014 0.040-0.037 0.075-0.069 0.103-0.136 0.034-0.273 0.046-0.413 0.034 0.023-0.046 0.046-0.092 0.069-0.138 0.116-0.027 0.23-0.061 0.344-0.103 0.665-0.034 1.33-0.046 1.996-0.034 0 0.138 0 0.275 0 0.413z"></path>
<path fill="#858589" style="fill: var(--color62, #858589)" opacity="0.922" d="M21.23 13.729c0.011 0.185-0 0.368-0.034 0.551-0.019 0.063-0.054 0.109-0.103 0.138-0.030 0.004-0.053-0.007-0.069-0.034 0.097-0.216 0.166-0.434 0.206-0.654z"></path>
<path fill="#560006" style="fill: var(--color63, #560006)" opacity="0.194" d="M12.077 13.867c-0.066 0.155-0.112 0.315-0.138 0.482-0.596 0-1.193 0-1.789 0 0-0.023 0-0.046 0-0.069 0.573 0 1.147 0 1.72 0-0.003-0.178 0.066-0.316 0.206-0.413z"></path>
<path fill="#2e2f35" style="fill: var(--color64, #2e2f35)" opacity="0.15" d="M23.432 14.348c-0.501-0.039-0.983 0.007-1.445 0.138 0-0.069 0-0.138 0-0.206 0.495-0.022 0.976 0.001 1.445 0.069z"></path>
<path fill="#5a0408" style="fill: var(--color65, #5a0408)" opacity="0.214" d="M16.069 13.798c0.042 0.008 0.077 0.031 0.103 0.069 0.147 0.547 0.113 1.074-0.103 1.583 0-0.023 0-0.046 0-0.069 0.028-0.3 0.074-0.598 0.138-0.895-0.061-0.227-0.106-0.457-0.138-0.688z"></path>
<path fill="#e10c0c" style="fill: var(--color66, #e10c0c)" d="M17.032 13.454c0.918-0.011 1.835 0 2.753 0.034 0.52 0.26 0.749 0.684 0.688 1.273 0 0.023 0 0.046 0 0.069-0.042 0.008-0.077 0.031-0.103 0.069-0.034 0.182-0.046 0.366-0.034 0.551-0.093 0.075-0.162 0.167-0.206 0.275 0.103-0.494 0.172-0.999 0.206-1.514-0.051-0.085-0.074-0.177-0.069-0.275-0.098-0.005-0.19 0.017-0.275 0.069-0.209-0.13-0.427-0.245-0.654-0.344-0.74-0.121-1.485-0.167-2.237-0.138-0.033 0.573-0.056 1.146-0.069 1.72-0.069 0-0.138 0-0.206 0-0.007 0.157-0.052 0.295-0.138 0.413 0-0.092 0-0.184 0-0.275-0.021-0.199 0.002-0.382 0.069-0.551 0.177-0.433 0.268-0.891 0.275-1.376z"></path>
<path fill="#880c12" style="fill: var(--color67, #880c12)" d="M10.151 14.28c0 0.023 0 0.046 0 0.069-0.046 0.053-0.104 0.099-0.172 0.138-0.105 0.587-0.231 1.161-0.379 1.72 0.059-0.6 0.151-1.196 0.275-1.789 0.077-0.078 0.169-0.124 0.275-0.138z"></path>
<path fill="#1a1a20" style="fill: var(--color68, #1a1a20)" opacity="0.2" d="M21.092 14.555c-0.023 0.092-0.046 0.184-0.069 0.275-0.093-0.112-0.070-0.204 0.069-0.275z"></path>
<path fill="#828485" style="fill: var(--color69, #828485)" opacity="0.914" d="M26.047 14.555c-0.025 0.219-0.071 0.426-0.138 0.619-0.011-0.185 0-0.368 0.034-0.551 0.026-0.038 0.061-0.061 0.103-0.069z"></path>
<path fill="#aaaaad" style="fill: var(--color70, #aaaaad)" opacity="0.988" d="M6.434 14.761c-0.040 0.195-0.132 0.355-0.275 0.482 0.012-0.091-0.011-0.171-0.069-0.241 0.065-0.033 0.134-0.045 0.206-0.034-0.011-0.095 0.001-0.186 0.034-0.275 0.026 0.038 0.061 0.061 0.103 0.069z"></path>
<path fill="#740a10" style="fill: var(--color71, #740a10)" opacity="0.784" d="M12.766 14.073c-0.2 0.764-0.349 1.544-0.447 2.34-0.026 0.038-0.061 0.061-0.103 0.069 0.094-0.725 0.22-1.459 0.379-2.202 0.026-0.099 0.083-0.168 0.172-0.206z"></path>
<path fill="#818385" style="fill: var(--color72, #818385)" opacity="0.515" d="M28.112 15.312c-0.584-0.080-1.181-0.091-1.789-0.034-0.067 0.102-0.159 0.159-0.275 0.172 0.054-0.089 0.123-0.169 0.206-0.241 0.643-0.057 1.286-0.046 1.927 0.034-0.009 0.042-0.031 0.065-0.069 0.069z"></path>
<path fill="#68040c" style="fill: var(--color73, #68040c)" opacity="0.102" d="M19.51 14.28c0.133 0.184 0.167 0.391 0.103 0.619-0.072 0.152-0.118 0.313-0.138 0.482-0.045 0.126-0.126 0.217-0.241 0.275 0-0.023 0-0.046 0-0.069 0.224-0.376 0.293-0.777 0.206-1.204-0.528-0.046-1.055-0.046-1.583 0-0.111 0.357-0.202 0.713-0.275 1.067 0.017-0.345 0.040-0.689 0.069-1.032 0.601-0.133 1.22-0.179 1.858-0.138z"></path>
<path fill="#52040a" style="fill: var(--color74, #52040a)" opacity="0.049" d="M20.473 14.83c-0.025 0.219-0.071 0.426-0.138 0.619-0.011-0.185 0-0.368 0.034-0.551 0.026-0.038 0.061-0.061 0.103-0.069z"></path>
<path fill="#222424" style="fill: var(--color75, #222424)" opacity="0.216" d="M25.015 15.243c-0.004 0.076-0.027 0.145-0.069 0.206-0.084-0.088-0.061-0.157 0.069-0.206z"></path>
<path fill="#6f090d" style="fill: var(--color76, #6f090d)" opacity="0.663" d="M9.049 14.348c0.011 0.185-0 0.368-0.034 0.551-0.071 0.308-0.151 0.606-0.241 0.895 0.029-0.502 0.12-0.984 0.275-1.445z"></path>
<path fill="#3b3e3f" style="fill: var(--color77, #3b3e3f)" opacity="0.129" d="M25.91 15.243c0.088 0.047 0.088 0.105 0 0.172 0.041 0.032 0.087 0.043 0.138 0.034-0.046 0.053-0.104 0.099-0.172 0.138-0.054-0.13-0.042-0.245 0.034-0.344z"></path>
<path fill="#919496" style="fill: var(--color78, #919496)" opacity="0.957" d="M24.396 15.381c-0.027 0.242-0.073 0.471-0.138 0.688-0.011-0.208 0-0.414 0.034-0.619 0.026-0.038 0.061-0.061 0.103-0.069z"></path>
<path fill="#390100" style="fill: var(--color79, #390100)" opacity="0.094" d="M19.234 15.587c0 0.023 0 0.046 0 0.069-0.37-0.023-0.737 0-1.101 0.069-0.024 0.070-0.070 0.116-0.138 0.138 0.003-0.075 0.026-0.143 0.069-0.206 0.387-0.068 0.777-0.091 1.17-0.069z"></path>
<path fill="#d60e11" style="fill: var(--color80, #d60e11)" d="M19.51 14.28c0.069 0 0.138 0 0.206 0 0.002 0.393-0.032 0.783-0.103 1.17-0.070 0.059-0.128 0.128-0.172 0.206-0.402 0.113-0.815 0.17-1.239 0.172-0.060 0.072-0.129 0.129-0.206 0.172 0-0.046 0-0.092 0-0.138 0.067-0.021 0.113-0.067 0.138-0.138 0.364-0.068 0.731-0.091 1.101-0.069 0.115-0.058 0.195-0.15 0.241-0.275 0.020-0.169 0.066-0.329 0.138-0.482 0.064-0.229 0.030-0.435-0.103-0.619z"></path>
<path fill="#6a6a6e" style="fill: var(--color81, #6a6a6e)" opacity="0.604" d="M5.471 15.656c0.018 0.11-0.005 0.202-0.069 0.275-0.109-0.129-0.086-0.221 0.069-0.275z"></path>
<path fill="#f50405" style="fill: var(--color82, #f50405)" d="M15.931 13.66c0.092 0 0.138 0.046 0.138 0.138 0.031 0.232 0.077 0.461 0.138 0.688-0.064 0.296-0.11 0.594-0.138 0.895-0.094 0.215-0.163 0.444-0.206 0.688-0.111 0.223-0.18 0.476-0.206 0.757-0.068 0.318-0.091 0.639-0.069 0.963-0.229 0-0.459 0-0.688 0 0-0.115 0-0.229 0-0.344 0-0.184 0-0.367 0-0.551 0-0.023 0-0.046 0-0.069 0.064-0.073 0.087-0.165 0.069-0.275-0.446-0.068-0.905-0.091-1.376-0.069 0.054-0.286 0.191-0.527 0.413-0.723 0.367-0.023 0.734-0.046 1.101-0.069 0.106-0.076 0.152-0.18 0.138-0.31 0.066-0.309 0.066-0.608 0-0.895 0-0.023 0-0.046 0-0.069 0-0.046 0-0.092 0-0.138-0.561-0.068-1.134-0.091-1.72-0.069-0.014 0.15-0.060 0.288-0.138 0.413 0 0.023 0 0.046 0 0.069-0.118 0.248-0.198 0.523-0.241 0.826-0.114 0.591-0.194 1.188-0.241 1.789 0 0.092 0 0.184 0 0.275-0.062 0.049-0.085 0.118-0.069 0.206-0.229 0-0.459 0-0.688 0 0.023-0.413 0.046-0.826 0.069-1.239 0-0.023 0-0.046 0-0.069 0.042-0.008 0.077-0.031 0.103-0.069 0.098-0.796 0.247-1.576 0.447-2.34 0.161-0.115 0.298-0.252 0.413-0.413 0.92-0.275 1.837-0.275 2.753 0z"></path>
<path fill="#7d0810" style="fill: var(--color83, #7d0810)" opacity="0.533" d="M13.316 15.449c0.012 0.249-0.034 0.479-0.138 0.688-0.023-0.252 0.022-0.481 0.138-0.688z"></path>
<path fill="#410101" style="fill: var(--color84, #410101)" opacity="0.085" d="M15.037 15.587c-0.354 0.057-0.721 0.091-1.101 0.103-0.060 0.072-0.129 0.129-0.206 0.172 0.003-0.075 0.026-0.143 0.069-0.206 0.41-0.069 0.823-0.091 1.239-0.069z"></path>
<path fill="#540306" style="fill: var(--color85, #540306)" opacity="0.184" d="M15.243 14.486c0.066 0.287 0.066 0.585 0 0.895-0.046 0.046-0.092 0.092-0.138 0.138 0.068-0.341 0.114-0.685 0.138-1.032z"></path>
<path fill="#6d040d" style="fill: var(--color86, #6d040d)" opacity="0.639" d="M13.523 14.555c-0.047 0.311-0.116 0.609-0.206 0.895 0.015-0.253 0.038-0.506 0.069-0.757 0-0.023 0-0.046 0-0.069 0.046-0.023 0.092-0.046 0.138-0.069z"></path>
<path fill="#590108" style="fill: var(--color87, #590108)" opacity="0.194" d="M15.243 14.28c0 0.046 0 0.092 0 0.138-0.55-0.089-1.1-0.089-1.652 0 0.523-0.135 1.073-0.181 1.652-0.138z"></path>
<path fill="#cf1117" style="fill: var(--color88, #cf1117)" opacity="0.985" d="M15.243 14.28c-0.578-0.044-1.129 0.002-1.652 0.138-0.023 0.046-0.046 0.092-0.069 0.138-0.046 0.023-0.092 0.046-0.138 0.069 0.078-0.125 0.124-0.263 0.138-0.413 0.586-0.022 1.16 0 1.72 0.069z"></path>
<path fill="#83090e" style="fill: var(--color89, #83090e)" opacity="0.839" d="M16.688 15.381c0 0.092 0 0.184 0 0.275-0.011 0.299-0.080 0.574-0.206 0.826 0.026-0.384 0.094-0.751 0.206-1.101z"></path>
<path fill="#9f0e14" style="fill: var(--color90, #9f0e14)" opacity="0.957" d="M16.069 15.381c0 0.023 0 0.046 0 0.069 0 0.115 0 0.229 0 0.344-0.119 0.157-0.164 0.34-0.138 0.551-0.003 0.246-0.049 0.476-0.138 0.688 0.012-0.322 0.035-0.643 0.069-0.963 0.043-0.244 0.112-0.474 0.206-0.688z"></path>
<path fill="#26272b" style="fill: var(--color91, #26272b)" opacity="0.11" d="M28.043 15.931c0 0.069 0 0.138 0 0.206-0.757 0-1.514 0-2.271 0 0.018 0.11-0.005 0.202-0.069 0.275 0-0.115 0-0.229 0-0.344 0.797 0.042 1.577-0.004 2.34-0.138z"></path>
<path fill="#480507" style="fill: var(--color92, #480507)" opacity="0.192" d="M16.069 15.794c-0.021 0.198-0.067 0.381-0.138 0.551-0.027-0.21 0.019-0.394 0.138-0.551z"></path>
<path fill="#5e050a" style="fill: var(--color93, #5e050a)" opacity="0.067" d="M17.583 15.587c-0.027 0.242-0.073 0.471-0.138 0.688-0.011-0.208 0-0.414 0.034-0.619 0.026-0.038 0.061-0.061 0.103-0.069z"></path>
<path fill="#29292b" style="fill: var(--color94, #29292b)" opacity="0.231" d="M24.877 16c0.016 0.089-0.007 0.158-0.069 0.206-0.030 0.004-0.053-0.007-0.069-0.034 0.039-0.068 0.085-0.126 0.138-0.172z"></path>
<path fill="#525358" style="fill: var(--color95, #525358)" opacity="0.455" d="M24.258 16.138c0.030-0.004 0.053 0.007 0.069 0.034-0.040 0.090-0.086 0.17-0.138 0.241-0.018-0.11 0.005-0.202 0.069-0.275z"></path>
<path fill="#7d0a11" style="fill: var(--color96, #7d0a11)" opacity="0.773" d="M20.335 15.449c-0.052 0.288-0.179 0.541-0.378 0.757-0.167 0.078-0.316 0.181-0.447 0.31 0.209 0.383 0.369 0.785 0.482 1.204 0.012 0.068-0.011 0.114-0.069 0.138 0.018-0.11-0.005-0.202-0.069-0.275-0.137-0.343-0.275-0.687-0.413-1.032 0.052-0.239 0.201-0.377 0.447-0.413 0.049-0.162 0.129-0.3 0.241-0.413 0.044-0.108 0.113-0.2 0.206-0.275z"></path>
<path fill="#a9a9aa" style="fill: var(--color97, #a9a9aa)" opacity="0.992" d="M20.886 15.725c0.011 0.231-0 0.46-0.034 0.688-0.026 0.038-0.061 0.061-0.103 0.069 0.010-0.267 0.056-0.52 0.138-0.757z"></path>
<path fill="#d01113" style="fill: var(--color98, #d01113)" d="M13.385 14.692c-0.030 0.251-0.053 0.504-0.069 0.757-0.115 0.207-0.161 0.436-0.138 0.688 0 0.023 0 0.046 0 0.069-0.113 0.255-0.158 0.531-0.138 0.826 0 0.046 0 0.092 0 0.138-0.046 0.046-0.092 0.092-0.138 0.138 0.047-0.602 0.127-1.198 0.241-1.789 0.042-0.303 0.123-0.578 0.241-0.826z"></path>
<path fill="#490607" style="fill: var(--color99, #490607)" opacity="0.165" d="M17.789 16.275c0 0.092 0 0.184 0 0.275 0.229 0 0.459 0 0.688 0 0.131 0.151 0.199 0.335 0.206 0.551-0.123-0.133-0.192-0.293-0.206-0.482-0.253 0.011-0.506-0-0.757-0.034-0.072-0.12-0.050-0.224 0.069-0.31z"></path>
<path fill="#921518" style="fill: var(--color100, #921518)" opacity="0.796" d="M17.996 15.862c0 0.046 0 0.092 0 0.138-0.066 0.155-0.112 0.315-0.138 0.482 0.221-0.021 0.428 0.002 0.619 0.069-0.229 0-0.459 0-0.688 0 0-0.092 0-0.184 0-0.275 0.034-0.16 0.103-0.297 0.206-0.413z"></path>
<path fill="#dc0f11" style="fill: var(--color101, #dc0f11)" d="M17.652 14.417c-0.029 0.344-0.052 0.688-0.069 1.032 0 0.046 0 0.092 0 0.138-0.042 0.008-0.077 0.031-0.103 0.069-0.034 0.205-0.046 0.412-0.034 0.619 0 0.046 0 0.092 0 0.138-0.042 0.008-0.077 0.031-0.103 0.069-0.086 0.456-0.144 0.914-0.172 1.376-0.298 0-0.596 0-0.895 0-0.016-0.089 0.007-0.158 0.069-0.206 0.219 0.132 0.471 0.178 0.757 0.138-0.011-0.391 0-0.781 0.034-1.17 0.205-0.698 0.343-1.41 0.413-2.133 0.026-0.038 0.061-0.061 0.103-0.069z"></path>
<path fill="#a8171a" style="fill: var(--color102, #a8171a)" opacity="0.854" d="M15.243 15.381c0.014 0.13-0.032 0.233-0.138 0.31-0.367 0.023-0.734 0.046-1.101 0.069-0.222 0.196-0.359 0.437-0.413 0.723 0.472-0.022 0.93 0.001 1.376 0.069-0.482 0-0.963 0-1.445 0 0-0.092 0-0.184 0-0.275 0.034-0.16 0.103-0.297 0.206-0.413 0.078-0.043 0.146-0.1 0.206-0.172 0.38-0.012 0.747-0.046 1.101-0.103 0.046 0 0.069-0.023 0.069-0.069 0.046-0.046 0.092-0.092 0.138-0.138z"></path>
<path fill="#440203" style="fill: var(--color103, #440203)" opacity="0.084" d="M13.523 16.275c0 0.092 0 0.184 0 0.275 0.482 0 0.963 0 1.445 0 0.018 0.11-0.005 0.202-0.069 0.275 0-0.069 0-0.138 0-0.206-0.482 0.011-0.964 0-1.445-0.034-0.046-0.023-0.092-0.046-0.138-0.069 0.078-0.079 0.147-0.159 0.206-0.241z"></path>
<path fill="#6f0d10" style="fill: var(--color104, #6f0d10)" opacity="0.541" d="M13.178 16.206c0.011 0.293-0.035 0.569-0.138 0.826-0.021-0.295 0.025-0.57 0.138-0.826z"></path>
<path fill="#900a15" style="fill: var(--color105, #900a15)" opacity="0.959" d="M8.774 15.862c-0.062 0.484-0.062 0.965 0 1.445-0.046-0.023-0.092-0.046-0.138-0.069-0.090-0.469-0.044-0.928 0.138-1.376z"></path>
<path fill="#85878a" style="fill: var(--color106, #85878a)" opacity="0.808" d="M5.333 16.413c-0.011 0.117 0 0.232 0.034 0.344 0.079-0.008 0.159-0.031 0.241-0.069-0.007 0.157-0.052 0.295-0.138 0.413 0.011-0.267-0.057-0.312-0.206-0.138 0.015-0.113-0.008-0.216-0.069-0.31 0.040-0.090 0.086-0.17 0.138-0.241z"></path>
<path fill="#760b0e" style="fill: var(--color107, #760b0e)" opacity="0.463" d="M9.6 16.206c-0.020 0.248 0.003 0.489 0.069 0.723 0.619 0.034 1.238 0.046 1.858 0.034 0 0.023 0 0.046 0 0.069-0.619 0-1.239 0-1.858 0-0.066-0.031-0.123-0.077-0.172-0.138-0.058-0.251-0.023-0.48 0.103-0.688z"></path>
<path fill="#5d5f62" style="fill: var(--color108, #5d5f62)" opacity="0.38" d="M21.437 16.757c-0.006 0.069 0.017 0.126 0.069 0.172 0.481 0.034 0.963 0.046 1.445 0.034-0.586 0.091-1.182 0.091-1.789 0 0.009-0.042 0.031-0.065 0.069-0.069 0.093 0.079 0.116 0.079 0.069 0 0.023-0.069 0.069-0.115 0.138-0.138z"></path>
<path fill="#616368" style="fill: var(--color109, #616368)" opacity="0.384" d="M25.841 16.963c0.665 0 1.33 0 1.996 0 0.020 0.132-0.003 0.246-0.069 0.344 0-0.092 0-0.184 0-0.275-0.655 0.023-1.297-0-1.927-0.069z"></path>
<path fill="#c1c2c6" style="fill: var(--color110, #c1c2c6)" d="M5.471 17.101c0.014 0.206-0.032 0.39-0.138 0.551-0.067-0.215-0.090-0.444-0.069-0.688 0.149-0.175 0.218-0.129 0.206 0.138z"></path>
<path fill="#c90e13" style="fill: var(--color111, #c90e13)" d="M15.862 16.069c-0.034 0.32-0.057 0.641-0.069 0.963 0.011 0.293-0.035 0.569-0.138 0.826-0.275 0-0.551 0-0.826 0-0.020-0.154 0.003-0.291 0.069-0.413 0 0.115 0 0.229 0 0.344 0.229 0 0.459 0 0.688 0-0.023-0.324 0-0.645 0.069-0.963 0.027-0.281 0.096-0.534 0.206-0.757z"></path>
<path fill="#8d8f91" style="fill: var(--color112, #8d8f91)" opacity="0.988" d="M24.12 16.826c0.003 0.178-0.066 0.316-0.206 0.413-0.003-0.177 0.066-0.315 0.206-0.413z"></path>
<path fill="#420609" style="fill: var(--color113, #420609)" opacity="0.282" d="M11.527 17.032c0-0.023 0-0.046 0-0.069 0.086-0.003 0.155 0.032 0.206 0.103-0.085 0.267-0.154 0.531-0.206 0.791 0.027-0.29 0.027-0.565 0-0.826z"></path>
<path fill="#5e060a" style="fill: var(--color114, #5e060a)" opacity="0.365" d="M8.637 17.239c0.046 0.023 0.092 0.046 0.138 0.069-0.005 0.105 0.041 0.174 0.138 0.206 0.069 0.092 0.138 0.184 0.206 0.275-0.257-0.097-0.418-0.28-0.482-0.551z"></path>
<path fill="#67060c" style="fill: var(--color115, #67060c)" opacity="0.612" d="M13.041 17.17c-0.017 0.244-0.063 0.473-0.138 0.688 0-0.092 0-0.184 0-0.275s0-0.184 0-0.275c0.046-0.046 0.092-0.092 0.138-0.138z"></path>
<path fill="#7a0910" style="fill: var(--color116, #7a0910)" opacity="0.604" d="M18.684 17.101c0.142 0.122 0.233 0.282 0.275 0.482 0 0.069 0 0.138 0 0.206-0.127-0.21-0.219-0.439-0.275-0.688z"></path>
<path fill="#313437" style="fill: var(--color117, #313437)" opacity="0.227" d="M5.265 16.963c-0.022 0.244 0.001 0.473 0.069 0.688 0.009 0.060-0.014 0.106-0.069 0.138-0.090-0.286-0.090-0.561 0-0.826z"></path>
<path fill="#38393e" style="fill: var(--color118, #38393e)" opacity="0.227" d="M32.034 17.17c0.079 0.216 0.090 0.445 0.034 0.688-0.082-0.073-0.116-0.165-0.103-0.275 0.066-0.121 0.089-0.259 0.069-0.413z"></path>
<path fill="#b3b5b8" style="fill: var(--color119, #b3b5b8)" d="M24.877 17.445c0.115 0.017 0.218 0.063 0.31 0.138 0.023-0.023 0.046-0.046 0.069-0.069 0.051 0.17 0.154 0.285 0.31 0.344-0.32 0.001-0.549-0.137-0.688-0.413z"></path>
<path fill="#55070c" style="fill: var(--color120, #55070c)" opacity="0.427" d="M14.899 16.895c0 0.184 0 0.367 0 0.551-0.066 0.121-0.089 0.259-0.069 0.413 0.275 0 0.551 0 0.826 0-0.303 0.091-0.612 0.091-0.929 0 0.021-0.331 0.078-0.652 0.172-0.963z"></path>
<path fill="#ab0e16" style="fill: var(--color121, #ab0e16)" opacity="0.952" d="M9.669 17.032c0.619 0 1.239 0 1.858 0 0.027 0.261 0.027 0.536 0 0.826-0.699 0.080-1.41 0.091-2.133 0.034-0.107-0.014-0.199-0.049-0.275-0.103-0.069-0.092-0.138-0.184-0.206-0.275 0.151 0.093 0.312 0.173 0.482 0.241 0.666 0.057 1.332 0.046 1.996-0.034 0.062-0.201 0.085-0.407 0.069-0.619-0.609 0.022-1.205-0-1.789-0.069z"></path>
<path fill="#bd161a" style="fill: var(--color122, #bd161a)" d="M12.215 16.551c-0.023 0.413-0.046 0.826-0.069 1.239 0.229 0 0.459 0 0.688 0-0.016-0.089 0.007-0.158 0.069-0.206 0 0.092 0 0.184 0 0.275-0.275 0-0.551 0-0.826 0 0-0.184 0-0.367 0-0.551 0.010-0.267 0.056-0.52 0.138-0.757z"></path>
<path fill="#c4171f" style="fill: var(--color123, #c4171f)" d="M18.959 17.583c0.062 0.049 0.085 0.118 0.069 0.206 0.275 0 0.551 0 0.826 0 0-0.069 0-0.138 0-0.206 0.064 0.073 0.087 0.165 0.069 0.275-0.321 0-0.642 0-0.963 0 0-0.023 0-0.046 0-0.069 0-0.069 0-0.138 0-0.206z"></path>
<path fill="#4a0407" style="fill: var(--color124, #4a0407)" opacity="0.173" d="M12.077 17.308c0 0.184 0 0.367 0 0.551 0.275 0 0.551 0 0.826 0-0.285 0.079-0.584 0.090-0.895 0.034-0.023-0.115-0.046-0.229-0.069-0.344 0.040-0.090 0.086-0.17 0.138-0.241z"></path>
<path fill="#550509" style="fill: var(--color125, #550509)" opacity="0.154" d="M17.445 16.413c-0.103 0.5-0.171 1.004-0.206 1.514-0.38 0.031-0.747-0.004-1.101-0.103 0.137-0.425 0.252-0.85 0.344-1.273-0.002 0.373-0.047 0.74-0.138 1.101-0.062 0.049-0.085 0.118-0.069 0.206 0.298 0 0.596 0 0.895 0 0.028-0.462 0.086-0.921 0.172-1.376 0.026-0.038 0.061-0.061 0.103-0.069z"></path>
<path fill="#3a0202" style="fill: var(--color126, #3a0202)" opacity="0.18" d="M19.991 17.72c0.062 0.049 0.085 0.118 0.069 0.206-0.38 0.022-0.747-0.001-1.101-0.069 0.321 0 0.642 0 0.963 0 0.058-0.024 0.081-0.069 0.069-0.138z"></path>
<path fill="#1e1e1f" style="fill: var(--color127, #1e1e1f)" opacity="0.063" d="M20.542 17.583c0 0.092 0 0.184 0 0.275 0.78 0 1.56 0 2.34 0-0.791 0.080-1.594 0.091-2.409 0.034-0.072-0.12-0.050-0.224 0.069-0.31z"></path>
<path fill="#5d0000" style="fill: var(--color128, #5d0000)" opacity="0.215" d="M8.637 19.234c6.698 0 13.396 0 20.095 0 0.012 0.091-0.011 0.171-0.069 0.241-6.675 0.046-13.351 0.046-20.026 0-0.081-0.079-0.081-0.159 0-0.241z"></path>
<path fill="#aa2326" style="fill: var(--color129, #aa2326)" d="M8.705 19.303c6.63-0.023 13.259 0 19.888 0.069-3.315 0.023-6.629 0.046-9.944 0.069-3.338 0-6.653-0.046-9.944-0.138z"></path>
<path fill="#a4a5a8" style="fill: var(--color130, #a4a5a8)" opacity="0.682" d="M6.021 20.404c0-0.023 0-0.046 0-0.069 0.414-0.011 0.826 0 1.239 0.034 0.099 0.026 0.168 0.083 0.206 0.172-0.467-0.123-0.949-0.168-1.445-0.138z"></path>
<path fill="#b7b9bb" style="fill: var(--color131, #b7b9bb)" opacity="0.714" d="M10.839 20.817c-0.023 0-0.046 0-0.069 0 0-0.138 0-0.275 0-0.413-0.436 0-0.872 0-1.308 0 0 0.551 0 1.101 0 1.652-0.023 0-0.046 0-0.069 0 0-0.573 0-1.147 0-1.72 0.482 0 0.963 0 1.445 0 0 0.161 0 0.321 0 0.482z"></path>
<path fill="#a9aaae" style="fill: var(--color132, #a9aaae)" opacity="0.724" d="M16.619 20.473c-0.264-0.1-0.516-0.077-0.757 0.069-0.006-0.069 0.017-0.126 0.069-0.172 0.115-0.012 0.229-0.023 0.344-0.034 0.147 0.004 0.262 0.050 0.344 0.138z"></path>
<path fill="#909296" style="fill: var(--color133, #909296)" opacity="0.714" d="M24.602 20.473c-0.199-0.088-0.406-0.088-0.619 0-0.085-0.021-0.085-0.056 0-0.103 0.201-0.015 0.396-0.049 0.585-0.103 0.106 0.069 0.118 0.138 0.034 0.206z"></path>
<path fill="#09070a" style="fill: var(--color134, #09070a)" opacity="0.017" d="M27.355 20.335c0 0.023 0 0.046 0 0.069 0 0.046 0 0.092 0 0.138-0.092 0.023-0.092 0.046 0 0.069 0 0.069 0 0.138 0 0.206-0.046 0-0.092 0-0.138 0 0-0.046-0.023-0.069-0.069-0.069-0.092-0.046-0.161-0.115-0.206-0.206 0.104 0.001 0.185 0.047 0.241 0.138 0.003-0.154 0.061-0.269 0.172-0.344z"></path>
<path fill="#e1e2e3" style="fill: var(--color135, #e1e2e3)" opacity="0.999" d="M31.209 20.817c-0.069 0.023-0.115 0.069-0.138 0.138-0.045 0.021-0.091 0.044-0.138 0.069-0.237-0.177-0.466-0.177-0.688 0-0.185 0.505-0.024 0.689 0.482 0.551 0-0.138 0-0.275 0-0.413 0.184 0 0.367 0 0.551 0 0 0.092 0 0.184 0 0.275 0.046 0.16 0.057 0.32 0.034 0.482-0.436 0.272-0.884 0.306-1.342 0.103-0.424-0.366-0.527-0.813-0.31-1.342 0.56-0.53 1.122-0.541 1.686-0.034-0.010 0.090-0.055 0.147-0.138 0.172z"></path>
<path fill="#f4f4f5" style="fill: var(--color136, #f4f4f5)" d="M6.021 20.404c0 0.551 0 1.101 0 1.652 0.367 0 0.734 0 1.101 0 0.095 0.011 0.186-0.001 0.275-0.034 0.397-0.306 0.523-0.707 0.378-1.204-0.051-0.155-0.155-0.247-0.31-0.275-0.467-0.123-0.949-0.168-1.445-0.138zM7.054 20.955c0.2 0.4 0.063 0.606-0.413 0.619 0.017-0.219 0.017-0.425 0-0.619 0.126-0.029 0.263-0.029 0.413 0z"></path>
<path fill="#fcfdfd" style="fill: var(--color137, #fcfdfd)" opacity="0.999" d="M10.77 20.817c-0.286-0.040-0.538 0.006-0.757 0.138 0.215 0.067 0.444 0.090 0.688 0.069 0 0.138 0 0.275 0 0.413-0.264-0.039-0.493 0.007-0.688 0.138 0.261 0.068 0.537 0.091 0.826 0.069 0 0.138 0 0.275 0 0.413-0.459 0-0.918 0-1.376 0 0-0.551 0-1.101 0-1.652 0.436 0 0.872 0 1.308 0 0 0.138 0 0.275 0 0.413z"></path>
<path fill="#f6f7f8" style="fill: var(--color138, #f6f7f8)" opacity="0.998" d="M12.353 20.335c0.528 0 1.055 0 1.583 0 0 0.161 0 0.321 0 0.482-0.161 0-0.321 0-0.482 0 0 0.413 0 0.826 0 1.239-0.206 0-0.413 0-0.619 0 0-0.367 0-0.734 0-1.101 0-0.023 0-0.046 0-0.069-0.145-0.067-0.306-0.090-0.482-0.069 0-0.161 0-0.321 0-0.482z"></path>
<path fill="#e9e9e9" style="fill: var(--color139, #e9e9e9)" opacity="0.999" d="M16.619 20.473c-0.264-0.1-0.516-0.077-0.757 0.069-0.15 0.255-0.265 0.53-0.344 0.826-0.006 0.069 0.017 0.126 0.069 0.172-0.124 0.022-0.147 0.068-0.069 0.138-0.115 0.104-0.184 0.23-0.206 0.378 0.184 0 0.367 0 0.551 0 0.062-0.049 0.085-0.118 0.069-0.206 0.206 0 0.413 0 0.619 0-0.016 0.089 0.007 0.158 0.069 0.206 0.242 0.038 0.448-0.008 0.619-0.138-0.168-0.504-0.374-0.986-0.619-1.445zM16.206 21.092c0.053 0.046 0.099 0.104 0.138 0.172-0.107 0.013-0.153-0.044-0.138-0.172z"></path>
<path fill="#fdfefd" style="fill: var(--color140, #fdfefd)" opacity="0.999" d="M19.372 20.404c0 0.551 0 1.101 0 1.652-0.184 0-0.367 0-0.551 0 0-0.551 0-1.101 0-1.652 0.184 0 0.367 0 0.551 0z"></path>
<path fill="#eeefef" style="fill: var(--color141, #eeefef)" opacity="0.998" d="M24.602 20.473c0.040 0.522 0.040 1.050 0 1.583-0.206 0-0.413 0-0.619 0 0-0.505 0-1.009 0-1.514 0-0.023 0-0.046 0-0.069 0.214-0.088 0.42-0.088 0.619 0z"></path>
<path fill="#f7f7f8" style="fill: var(--color142, #f7f7f8)" d="M26.254 20.335c0.252-0.032 0.481 0.014 0.688 0.138 0 0.023 0 0.046 0 0.069 0.046 0.092 0.115 0.161 0.206 0.206 0.046 0 0.069 0.023 0.069 0.069 0.072 0.167 0.118 0.167 0.138 0 0-0.069 0-0.138 0-0.206 0-0.023 0-0.046 0-0.069 0-0.046 0-0.092 0-0.138 0.184 0 0.367 0 0.551 0 0 0.551 0 1.101 0 1.652-0.161 0-0.321 0-0.482 0-0.062-0.127-0.154-0.218-0.275-0.275 0-0.023 0-0.046 0-0.069-0.023-0.069-0.069-0.115-0.138-0.138 0-0.046-0.023-0.069-0.069-0.069-0.023-0.092-0.046-0.092-0.069 0 0 0.069 0 0.138 0 0.206 0 0.023 0 0.046 0 0.069 0 0.092 0 0.184 0 0.275-0.206 0-0.413 0-0.619 0 0-0.573 0-1.147 0-1.72zM27.217 20.817c0.046 0 0.092 0 0.138 0-0.020 0.167-0.066 0.167-0.138 0z"></path>
<path fill="#000" style="fill: var(--color13, #000)" opacity="0.016" d="M26.942 20.404c0.092 0.046 0.092 0.046 0 0z"></path>
<path fill="#323539" style="fill: var(--color143, #323539)" opacity="0.075" d="M12.353 20.335c0 0.161 0 0.321 0 0.482 0.176-0.021 0.337 0.002 0.482 0.069-0.184 0-0.367 0-0.551 0-0.021-0.199 0.002-0.382 0.069-0.551z"></path>
<path fill="#2c2c31" style="fill: var(--color144, #2c2c31)" opacity="0.161" d="M13.935 20.335c0.067 0.168 0.090 0.352 0.069 0.551-0.161 0-0.321 0-0.482 0 0.022 0.426-0.001 0.839-0.069 1.239 0-0.023 0-0.046 0-0.069 0-0.413 0-0.826 0-1.239 0.161 0 0.321 0 0.482 0 0-0.161 0-0.321 0-0.482z"></path>
<path fill="#494a50" style="fill: var(--color145, #494a50)" opacity="0.247" d="M19.372 20.335c0.068 0.584 0.091 1.18 0.069 1.789-0.284 0.023-0.513 0-0.688-0.069 0.023 0 0.046 0 0.069 0 0.184 0 0.367 0 0.551 0 0-0.551 0-1.101 0-1.652 0-0.023 0-0.046 0-0.069z"></path>
<path fill="#2d3030" style="fill: var(--color146, #2d3030)" opacity="0.106" d="M10.77 20.817c0.023 0 0.046 0 0.069 0-0.252 0.046-0.505 0.092-0.757 0.138-0.023 0-0.046 0-0.069 0 0.219-0.132 0.471-0.178 0.757-0.138z"></path>
<path fill="#6a6a6c" style="fill: var(--color147, #6a6a6c)" opacity="0.521" d="M7.054 20.955c-0.15-0.029-0.287-0.029-0.413 0 0.017 0.194 0.017 0.4 0 0.619-0.068-0.238-0.090-0.491-0.069-0.757 0.139-0.011 0.277 0 0.413 0.034 0.038 0.026 0.061 0.061 0.069 0.103z"></path>
<path fill="#b3b4b8" style="fill: var(--color148, #b3b4b8)" opacity="0.701" d="M19.372 20.335c0 0.023 0 0.046 0 0.069-0.184 0-0.367 0-0.551 0 0 0.551 0 1.101 0 1.652-0.023 0-0.046 0-0.069 0 0-0.573 0-1.147 0-1.72 0.206 0 0.413 0 0.619 0z"></path>
<path fill="#7a7c7f" style="fill: var(--color149, #7a7c7f)" opacity="0.439" d="M21.505 20.267c0.069-0.006 0.126 0.017 0.172 0.069 0.034 0.412 0.046 0.825 0.034 1.239 0.252 0 0.505 0 0.757 0 0 0.184 0 0.367 0 0.551-0.505 0.011-1.010 0-1.514-0.034 0.068-0.579 0.091-1.164 0.069-1.755 0.176 0.021 0.337-0.002 0.482-0.069z"></path>
<path fill="#fcfdfd" style="fill: var(--color137, #fcfdfd)" d="M21.092 20.404c0.184 0 0.367 0 0.551 0 0 0.413 0 0.826 0 1.239 0.252 0 0.505 0 0.757 0 0 0.138 0 0.275 0 0.413-0.436 0-0.872 0-1.308 0 0-0.551 0-1.101 0-1.652z"></path>
<path fill="#c5c7cb" style="fill: var(--color150, #c5c7cb)" opacity="0.844" d="M27.974 20.335c0.022 0.586-0 1.16-0.069 1.72 0-0.551 0-1.101 0-1.652-0.184 0-0.367 0-0.551 0 0-0.023 0-0.046 0-0.069 0.191-0.028 0.398-0.028 0.619 0z"></path>
<path fill="#a9aaad" style="fill: var(--color151, #a9aaad)" opacity="0.757" d="M10.013 20.955c0.023 0 0.046 0 0.069 0 0.229 0 0.459 0 0.688 0 0.021 0.176-0.002 0.337-0.069 0.482 0-0.138 0-0.275 0-0.413-0.244 0.022-0.473-0.001-0.688-0.069z"></path>
<path fill="#2f2f30" style="fill: var(--color152, #2f2f30)" opacity="0.302" d="M31.209 20.817c0.015 0.157 0.061 0.306 0.138 0.447-0.002 0.074-0.025 0.131-0.069 0.172 0-0.092 0-0.184 0-0.275-0.184 0-0.367 0-0.551 0 0.14-0.032 0.255-0.101 0.344-0.206 0.023-0.069 0.069-0.115 0.138-0.138z"></path>
<path fill="#20232d" style="fill: var(--color153, #20232d)" opacity="0.02" d="M23.983 20.542c0 0.505 0 1.009 0 1.514 0.206 0 0.413 0 0.619 0-0.175 0.069-0.405 0.092-0.688 0.069-0.022-0.54 0.001-1.068 0.069-1.583z"></path>
<path fill="#202022" style="fill: var(--color44, #202022)" opacity="0.043" d="M10.701 21.437c-0.206 0.046-0.413 0.092-0.619 0.138-0.023 0-0.046 0-0.069 0 0.195-0.131 0.425-0.177 0.688-0.138z"></path>
<path fill="#0a0a0a" style="fill: var(--color154, #0a0a0a)" opacity="0.016" d="M26.873 21.505c0.023 0 0.046 0 0.069 0 0.046 0 0.069 0.023 0.069 0.069-0.046 0.046-0.092 0.092-0.138 0.138 0-0.069 0-0.138 0-0.206z"></path>
<path fill="#a1a2a4" style="fill: var(--color155, #a1a2a4)" d="M30.245 21.024c-0.080 0.401 0.081 0.585 0.482 0.551-0.506 0.138-0.666-0.045-0.482-0.551z"></path>
<path fill="#272727" style="fill: var(--color156, #272727)" opacity="0.016" d="M27.011 21.574c0.069 0.023 0.115 0.069 0.138 0.138-0.092 0-0.138-0.046-0.138-0.138z"></path>
<path fill="#999b9e" style="fill: var(--color157, #999b9e)" d="M15.518 21.368c-0.006 0.069 0.017 0.126 0.069 0.172-0.124 0.022-0.147 0.068-0.069 0.138-0.115 0.104-0.184 0.23-0.206 0.378 0.184 0 0.367 0 0.551 0-0.219 0.090-0.449 0.090-0.688 0 0.081-0.253 0.195-0.482 0.344-0.688z"></path>
<path fill="#29292c" style="fill: var(--color158, #29292c)" opacity="0.02" d="M27.148 21.781c0.121 0.057 0.213 0.149 0.275 0.275-0.152-0.027-0.244-0.119-0.275-0.275z"></path>
<path fill="#5d6064" style="fill: var(--color159, #5d6064)" opacity="0.373" d="M6.021 20.335c0 0.023 0 0.046 0 0.069 0 0.551 0 1.101 0 1.652 0.367 0 0.734 0 1.101 0-0.377 0.068-0.767 0.091-1.17 0.069-0.022-0.609 0-1.205 0.069-1.789z"></path>
<path fill="#66696c" style="fill: var(--color160, #66696c)" opacity="0.374" d="M10.013 21.574c0.023 0 0.046 0 0.069 0 0.275 0 0.551 0 0.826 0 0 0.184 0 0.367 0 0.551-0.517 0.022-1.022-0.001-1.514-0.069 0.023 0 0.046 0 0.069 0 0.459 0 0.918 0 1.376 0 0-0.138 0-0.275 0-0.413-0.289 0.022-0.564-0.001-0.826-0.069z"></path>
<path fill="#404246" style="fill: var(--color161, #404246)" opacity="0.391" d="M12.834 20.955c0 0.367 0 0.734 0 1.101 0.206 0 0.413 0 0.619 0 0 0.023 0 0.046 0 0.069-0.229 0-0.459 0-0.688 0-0.022-0.403 0.001-0.793 0.069-1.17z"></path>
<path fill="#57585c" style="fill: var(--color162, #57585c)" opacity="0.376" d="M17.239 21.918c0.053 0.046 0.099 0.104 0.138 0.172-0.265 0.056-0.518 0.044-0.757-0.034 0.242 0.038 0.448-0.008 0.619-0.138z"></path>
<path fill="#37393b" style="fill: var(--color163, #37393b)" opacity="0.388" d="M26.254 20.335c0 0.573 0 1.147 0 1.72 0.206 0 0.413 0 0.619 0 0-0.092 0-0.184 0-0.275 0.065 0.098 0.088 0.212 0.069 0.344-0.252 0-0.505 0-0.757 0-0.022-0.609 0-1.205 0.069-1.789z"></path>
<path fill="#36383b" style="fill: var(--color164, #36383b)" opacity="0.373" d="M27.974 20.335c0.068 0.584 0.091 1.18 0.069 1.789-0.221 0.021-0.428-0.002-0.619-0.069 0.161 0 0.321 0 0.482 0 0.068-0.561 0.091-1.134 0.069-1.72z"></path>
</symbol>
</defs>
</svg>
